<?xml version="1.0" encoding="UTF-8"?>
<svg id="Layer_2" data-name="Layer 2" xmlns="http://www.w3.org/2000/svg" viewBox="0 0 764.07 402.67">
  <defs>
    <style>
      .cls-1 {
        fill: #000;
        stroke-width: 0px;
      }
    </style>
  </defs>
  <g id="_レイヤー_1" data-name="レイヤー 1">
    <g>
      <path class="cls-1" d="M110.74,87.75c0,3.13.03,6.58.09,10.34.06,3.77.21,6.81.46,9.12-4.26.35-8.18,1.28-11.77,2.78-3.59,1.51-7.3,3.1-11.13,4.78-3.83,1.68-8,3.19-12.5,4.52-4.5,1.33-9.73,2-15.69,2-8.88,0-16.94-1.42-24.17-4.26-7.24-2.84-13.41-6.86-18.52-12.08-5.11-5.21-9.06-11.44-11.86-18.68-2.8-7.24-4.2-15.26-4.2-24.07s1.58-16.79,4.74-24.33c3.16-7.53,7.57-14.01,13.23-19.46,5.66-5.44,12.31-9.73,19.98-12.86,7.66-3.13,16.05-4.69,25.18-4.69,6.81,0,12.89.96,18.24,2.87,5.35,1.91,10.7,4.55,16.06,7.91l6.2-7.99h.73c-.25,4.06-.55,7.38-.91,9.99-.37,2.61-.55,5.19-.55,7.73v3.82c0,1.04.03,2.15.09,3.3.06,1.16.09,2.49.09,4v5.73h-1.09c-.36-5.21-1.49-10.05-3.38-14.51-1.89-4.46-4.5-8.28-7.85-11.47-3.35-3.18-7.36-5.7-12.04-7.56-4.68-1.85-10.01-2.78-15.96-2.78-5.11,0-10.22,1.33-15.33,4-5.11,2.67-9.7,6.58-13.77,11.73-4.08,5.16-7.39,11.53-9.94,19.11-2.55,7.59-3.83,16.31-3.83,26.15,0,5.45.61,11.47,1.82,18.07,1.21,6.6,3.31,12.83,6.29,18.68,2.98,5.85,7.05,10.75,12.22,14.68,5.17,3.94,11.71,5.91,19.61,5.91,3.77,0,7.54-.55,11.31-1.65,3.77-1.1,7.18-2.84,10.22-5.21,3.04-2.37,5.53-5.44,7.48-9.21,1.94-3.76,2.92-8.25,2.92-13.47,0-5.67-1.22-9.73-3.65-12.16-2.43-2.43-6.93-3.65-13.5-3.65v-.69c3.65,0,6.63.03,8.94.09,2.31.06,4.32.15,6.02.26,1.7.12,3.28.2,4.74.26,1.46.06,3.22.09,5.29.09,1.94,0,3.62-.03,5.02-.09,1.4-.06,2.92-.14,4.56-.26,1.64-.11,3.59-.2,5.84-.26,2.25-.06,5.2-.09,8.85-.09v.69c-5.23,0-8.97.84-11.22,2.52-2.25,1.68-3.38,5.13-3.38,10.34Z"/>
      <path class="cls-1" d="M141.76,11.9c-.61-1.33-1.43-2.35-2.46-3.04-1.04-.7-2.25-1.13-3.65-1.3-1.4-.17-2.89-.26-4.47-.26v-.69c4.5-.46,8.88-1.19,13.14-2.17,4.26-.98,8.63-2.29,13.14-3.91v107.9c0,2.32.3,4.11.91,5.39.61,1.28,1.43,2.26,2.46,2.95,1.03.69,2.25,1.13,3.65,1.3,1.4.17,2.89.26,4.47.26v.69c-2.55,0-4.65-.03-6.29-.09-1.64-.06-3.16-.11-4.56-.17-1.4-.06-2.74-.11-4.01-.17-1.28-.06-2.71-.09-4.29-.09-1.7,0-3.16.03-4.38.09-1.22.06-2.46.12-3.74.17-1.28.06-2.74.12-4.38.17-1.64.06-3.68.09-6.11.09v-.69c1.58,0,3.07-.09,4.47-.26,1.4-.17,2.61-.61,3.65-1.3,1.03-.7,1.85-1.68,2.46-2.95.61-1.27.91-3.07.91-5.39V17.2c0-2.2-.31-3.97-.91-5.3Z"/>
      <path class="cls-1" d="M262.54,81.32c0,5.79-1.03,11.12-3.1,15.99-2.07,4.87-4.93,9.07-8.57,12.6-3.65,3.53-8.03,6.31-13.14,8.34s-10.64,3.04-16.6,3.04-11.68-1.02-16.78-3.04-9.55-4.81-13.32-8.34c-3.77-3.53-6.72-7.73-8.85-12.6-2.13-4.87-3.19-10.13-3.19-15.81,0-6.02,1.06-11.47,3.19-16.33,2.13-4.87,5.08-9.04,8.85-12.51,3.77-3.48,8.24-6.14,13.41-7.99,5.17-1.85,10.73-2.78,16.69-2.78s11.1.93,16.15,2.78c5.05,1.85,9.42,4.52,13.14,7.99,3.71,3.48,6.66,7.65,8.85,12.51s3.28,10.25,3.28,16.16ZM221.12,42.92c-4.38,0-8.15,1.1-11.31,3.29-3.16,2.19-5.78,5.07-7.85,8.65-2.07,3.58-3.62,7.7-4.65,12.37-1.03,4.67-1.55,9.43-1.55,14.27s.48,9.6,1.46,14.27c.97,4.67,2.52,8.82,4.65,12.45,2.13,3.63,4.77,6.55,7.94,8.74,3.16,2.19,6.93,3.29,11.31,3.29s8.15-1.13,11.31-3.37c3.16-2.25,5.72-5.19,7.66-8.82,1.94-3.63,3.38-7.78,4.29-12.45.91-4.67,1.37-9.43,1.37-14.27s-.49-9.57-1.46-14.18c-.97-4.61-2.46-8.71-4.47-12.28-2.01-3.57-4.56-6.46-7.66-8.65-3.1-2.19-6.78-3.29-11.04-3.29Z"/>
      <path class="cls-1" d="M281.15,16.68c0-2.2-.31-3.97-.91-5.3-.61-1.33-1.46-2.35-2.55-3.04-1.09-.69-2.37-1.13-3.83-1.3s-3.1-.26-4.93-.26v-.69c4.5-.35,9.06-1.04,13.68-2.08,4.62-1.04,9.06-2.37,13.32-4v51.26c2.31-2.32,5.29-4.37,8.94-6.17,3.65-1.79,8.39-2.69,14.23-2.69s11.1.96,15.78,2.87c4.68,1.91,8.67,4.55,11.95,7.91,3.28,3.36,5.81,7.36,7.57,11.99,1.76,4.63,2.65,9.62,2.65,14.94s-.82,10.83-2.46,15.81c-1.64,4.98-4.1,9.36-7.39,13.12-3.28,3.77-7.42,6.75-12.41,8.95-4.99,2.2-10.83,3.3-17.51,3.3-5.6,0-10.4-1.04-14.41-3.13-4.01-2.09-7.6-4.81-10.76-8.17l-10.03,10.08h-.91V16.68ZM340.26,81.66c0-4.44-.46-8.94-1.37-13.5-.91-4.56-2.37-8.68-4.38-12.36-2.01-3.68-4.53-6.66-7.57-8.94-3.04-2.28-6.69-3.42-10.95-3.42-3.53,0-6.57.56-9.12,1.67-2.55,1.11-4.65,2.45-6.29,4.03-1.64,1.58-2.83,3.33-3.56,5.26s-1.09,3.65-1.09,5.17v39.45c0,4.33.61,7.86,1.82,10.61,1.21,2.75,2.77,4.91,4.65,6.49,1.88,1.58,3.95,2.66,6.2,3.24,2.25.58,4.47.88,6.66.88,4.86,0,8.91-1.23,12.13-3.68,3.22-2.45,5.81-5.58,7.75-9.38,1.94-3.8,3.28-7.95,4.01-12.45.73-4.5,1.09-8.86,1.09-13.06Z"/>
      <path class="cls-1" d="M398.09,42.92c-1.46,0-3.1.18-4.93.53-1.82.35-3.56.85-5.2,1.49-1.64.64-3.04,1.4-4.2,2.28-1.16.88-1.73,1.84-1.73,2.89,0,.23.18.85.55,1.84.37.99.55,2.31.55,3.94,0,1.29-.43,2.66-1.28,4.12-.85,1.46-2.43,2.19-4.74,2.19-1.46,0-2.83-.46-4.1-1.39-1.28-.93-1.92-2.61-1.92-5.04s1.12-4.72,3.38-6.52c2.25-1.79,5.02-3.24,8.3-4.34,3.28-1.1,6.69-1.88,10.22-2.35,3.53-.46,6.57-.69,9.12-.69,4.13,0,8.03.38,11.68,1.13,3.65.75,6.81,2.06,9.49,3.92,2.67,1.86,4.77,4.35,6.29,7.49,1.52,3.14,2.28,7.08,2.28,11.84v38.14c0,.93.03,2.06.09,3.4.06,1.34.27,2.61.64,3.83.37,1.22.97,2.26,1.82,3.13.85.87,2.01,1.31,3.47,1.31,1.7,0,3.13-.69,4.29-2.06,1.16-1.37,2.04-2.54,2.65-3.5l.73.35c-.25.58-.73,1.42-1.46,2.52-.73,1.1-1.71,2.2-2.92,3.3-1.22,1.1-2.68,2.08-4.38,2.95-1.7.87-3.65,1.3-5.84,1.3-4.14,0-7.27-1.1-9.4-3.3-2.13-2.2-3.5-4.87-4.1-7.99-4.26,3.36-8.7,6.08-13.32,8.17-4.62,2.08-9.79,3.13-15.51,3.13-2.68,0-5.17-.35-7.48-1.04-2.31-.69-4.35-1.76-6.11-3.21-1.76-1.45-3.16-3.27-4.2-5.47-1.03-2.2-1.55-4.81-1.55-7.82,0-3.82,1-6.98,3.01-9.47,2.01-2.49,4.17-4.43,6.48-5.82,3.65-2.32,7.78-4.37,12.41-6.17,4.62-1.79,9.24-3.68,13.87-5.65,1.34-.58,2.74-1.19,4.2-1.82,1.46-.64,2.76-1.24,3.92-1.82,1.15-.58,2.1-1.13,2.83-1.65.73-.52,1.09-1.07,1.09-1.66v-5.6c0-1.63-.15-3.64-.46-6.03-.3-2.39-1.09-4.66-2.37-6.82-1.28-2.16-3.19-4.02-5.75-5.6-2.55-1.57-6.02-2.36-10.4-2.36ZM417.06,71.94c-3.53,1.75-7.36,3.52-11.49,5.32-4.14,1.8-7.72,3.69-10.76,5.67-3.53,2.33-6.11,5.2-7.75,8.64-1.64,3.43-2.46,6.66-2.46,9.68,0,1.75.21,3.49.64,5.23.42,1.75,1.19,3.31,2.28,4.71s2.49,2.56,4.2,3.49c1.7.93,3.83,1.4,6.39,1.4,4.26,0,7.94-.7,11.04-2.09s5.75-3.2,7.94-5.41v-36.63Z"/>
      <path class="cls-1" d="M460.67,11.9c-.61-1.33-1.43-2.35-2.46-3.04-1.03-.7-2.25-1.13-3.65-1.3-1.4-.17-2.89-.26-4.47-.26v-.69c4.5-.46,8.88-1.19,13.14-2.17,4.26-.98,8.63-2.29,13.14-3.91v107.9c0,2.32.3,4.11.91,5.39.61,1.28,1.43,2.26,2.46,2.95,1.03.69,2.25,1.13,3.65,1.3,1.4.17,2.89.26,4.47.26v.69c-2.55,0-4.65-.03-6.29-.09-1.64-.06-3.17-.11-4.56-.17-1.4-.06-2.74-.11-4.01-.17-1.28-.06-2.71-.09-4.29-.09-1.71,0-3.17.03-4.38.09-1.22.06-2.46.12-3.74.17-1.28.06-2.74.12-4.38.17-1.64.06-3.68.09-6.11.09v-.69c1.58,0,3.07-.09,4.47-.26,1.4-.17,2.61-.61,3.65-1.3,1.03-.7,1.85-1.68,2.46-2.95.61-1.27.91-3.07.91-5.39V17.2c0-2.2-.31-3.97-.91-5.3Z"/>
      <path class="cls-1" d="M71.52,263.19l-28.1-47.26h-12.04v47.26H5.84v-121.28h47.8c9.85,0,18.24,1.65,25.18,4.95,6.93,3.3,12.13,7.76,15.6,13.38,3.47,5.62,5.2,11.9,5.2,18.85,0,7.99-2.43,15.2-7.3,21.63-4.87,6.43-12.1,10.86-21.71,13.29l30.47,49.17h-29.56ZM31.38,197.69h21.35c6.93,0,12.1-1.59,15.51-4.78,3.4-3.18,5.11-7.62,5.11-13.29s-1.7-9.87-5.11-12.94c-3.41-3.07-8.58-4.6-15.51-4.6h-21.35v35.62Z"/>
      <path class="cls-1" d="M149.24,141.91v121.28h-25.54v-121.28h25.54Z"/>
      <path class="cls-1" d="M200.78,260.06c-7.12-2.89-12.74-7.06-16.88-12.51-4.14-5.44-6.27-11.87-6.39-19.29h27.37c.36,4.98,2.22,8.92,5.56,11.82,3.34,2.9,7.94,4.34,13.77,4.34s10.64-1.36,14.05-4.08c3.4-2.72,5.11-6.28,5.11-10.69,0-3.59-1.16-6.54-3.47-8.86-2.31-2.32-5.2-4.14-8.67-5.47-3.47-1.33-8.24-2.81-14.32-4.43-8.27-2.32-14.99-4.6-20.16-6.86-5.17-2.26-9.61-5.67-13.32-10.25-3.71-4.57-5.56-10.69-5.56-18.33,0-7.18,1.88-13.44,5.66-18.77,3.77-5.33,9.06-9.41,15.87-12.25,6.81-2.84,14.6-4.26,23.35-4.26,13.14,0,23.81,3.04,32.02,9.12s12.74,14.57,13.59,25.46h-28.1c-.25-4.17-2.1-7.62-5.56-10.34-3.47-2.72-8.06-4.08-13.77-4.08-4.99,0-8.97,1.22-11.95,3.65-2.98,2.43-4.47,5.97-4.47,10.6,0,3.24,1.12,5.94,3.38,8.08,2.25,2.14,5.05,3.88,8.39,5.21,3.34,1.33,8.06,2.87,14.14,4.6,8.27,2.32,15.02,4.63,20.25,6.95,5.23,2.32,9.73,5.79,13.5,10.43,3.77,4.63,5.66,10.72,5.66,18.24,0,6.49-1.76,12.51-5.29,18.07-3.53,5.56-8.7,9.99-15.51,13.29-6.81,3.3-14.9,4.95-24.27,4.95-8.88,0-16.88-1.45-23.99-4.34Z"/>
      <path class="cls-1" d="M319.09,256.42c-9.97-5.33-17.88-12.71-23.72-22.15-5.84-9.44-8.76-20.13-8.76-32.06s2.92-22.44,8.76-31.88c5.84-9.44,13.74-16.82,23.72-22.15,9.97-5.33,20.92-7.99,32.84-7.99s23.02,2.67,32.93,7.99c9.91,5.33,17.76,12.71,23.54,22.15,5.78,9.44,8.67,20.07,8.67,31.88s-2.89,22.62-8.67,32.06c-5.78,9.44-13.65,16.83-23.63,22.15-9.97,5.33-20.92,7.99-32.84,7.99s-22.87-2.66-32.84-7.99ZM372.18,237.74c5.84-3.3,10.4-8.02,13.68-14.16,3.28-6.14,4.93-13.26,4.93-21.37s-1.64-15.2-4.93-21.29c-3.28-6.08-7.85-10.74-13.68-13.99-5.84-3.24-12.59-4.87-20.25-4.87s-14.44,1.62-20.34,4.87c-5.9,3.24-10.49,7.91-13.77,13.99-3.28,6.08-4.93,13.18-4.93,21.29s1.64,15.23,4.93,21.37c3.28,6.14,7.87,10.86,13.77,14.16,5.9,3.3,12.68,4.95,20.34,4.95s14.41-1.65,20.25-4.95Z"/>
      <path class="cls-1" d="M512.3,240.08h-50.72l-8.39,23.11h-26.82l45.79-121.46h29.74l45.79,121.46h-27l-8.39-23.11ZM505.37,220.62l-18.43-50.74-18.43,50.74h36.85Z"/>
      <path class="cls-1" d="M627.78,263.19l-28.1-47.26h-12.04v47.26h-25.54v-121.28h47.8c9.85,0,18.25,1.65,25.18,4.95s12.13,7.76,15.6,13.38c3.47,5.62,5.2,11.9,5.2,18.85,0,7.99-2.43,15.2-7.3,21.63-4.87,6.43-12.1,10.86-21.71,13.29l30.47,49.17h-29.56ZM587.65,197.69h21.35c6.93,0,12.1-1.59,15.51-4.78,3.4-3.18,5.11-7.62,5.11-13.29s-1.7-9.87-5.11-12.94c-3.41-3.07-8.57-4.6-15.51-4.6h-21.35v35.62Z"/>
      <path class="cls-1" d="M762.06,141.91v19.63h-33.93v101.65h-25.54v-101.65h-33.93v-19.63h93.41Z"/>
      <path class="cls-1" d="M43.79,339.6c5.47,0,9.52-1.33,12.13-4,2.61-2.66,3.92-6.2,3.92-10.6h.73c0,2.67-.03,4.81-.09,6.43-.06,1.62-.09,2.93-.09,3.91s-.03,1.82-.09,2.52c-.06.69-.09,1.51-.09,2.43s.03,1.68.09,2.26c.06.58.09,1.36.09,2.35s.03,2.23.09,3.74c.06,1.51.09,3.59.09,6.25h-.73c0-4.17-1.31-7.59-3.92-10.25-2.62-2.66-6.66-4-12.13-4h-12.41v38.92c0,4.17.39,7.59,1.19,10.25.79,2.67,2.19,4.72,4.2,6.17,2.01,1.45,4.65,2.43,7.94,2.95,3.28.52,7.42.78,12.41.78,4.38,0,8.42-.35,12.13-1.04,3.71-.69,6.99-1.91,9.85-3.65,2.86-1.74,5.26-4.08,7.21-7.04,1.94-2.95,3.28-6.69,4.01-11.21h.91l-1.46,23.63c-5.35.11-10.03.2-14.05.26-4.01.06-8.46.09-13.32.09-10.34,0-18.67-.15-25-.43-6.33-.29-11.43-.43-15.33-.43-1.95,0-3.59.03-4.93.09-1.34.06-2.74.12-4.2.17-1.46.06-3.19.12-5.2.17-2.01.06-4.59.09-7.75.09v-.69c1.7,0,3.4-.14,5.11-.43,1.7-.29,3.19-.84,4.47-1.65,1.28-.81,2.31-1.94,3.1-3.39.79-1.45,1.19-3.39,1.19-5.82v-92.26c0-2.43-.4-4.37-1.19-5.82-.79-1.45-1.82-2.58-3.1-3.39-1.28-.81-2.77-1.36-4.47-1.65-1.7-.29-3.41-.43-5.11-.43v-.69c3.16,0,5.72.03,7.66.09,1.94.06,3.62.12,5.02.17,1.4.06,2.74.12,4.01.17,1.28.06,2.89.09,4.83.09,4.13,0,9.15-.17,15.05-.52,5.9-.35,12.5-.52,19.8-.52,2.31,0,4.47.03,6.48.09,2.01.06,3.95.12,5.84.17,1.88.06,3.83.12,5.84.17,2.01.06,4.23.09,6.66.09l1.09,21.89h-.73c-.98-6.95-3.99-12.25-9.03-15.9-5.05-3.65-12.13-5.47-21.25-5.47-1.09,0-2.37.03-3.83.09-1.46.06-2.92.15-4.38.26-1.46.12-2.86.26-4.2.43-1.34.17-2.43.32-3.28.43-1.34.23-2.37.78-3.1,1.65s-1.09,2.46-1.09,4.78v47.26h12.41Z"/>
      <path class="cls-1" d="M95.05,325.18c2.43,0,4.44.03,6.02.09,1.58.06,3.01.12,4.29.17,1.28.06,2.49.12,3.65.17,1.15.06,2.58.09,4.29.09,1.58,0,3.01-.03,4.29-.09,1.28-.06,2.61-.11,4.01-.17,1.4-.06,2.98-.11,4.74-.17,1.76-.06,3.92-.09,6.48-.09v.7c-2.07,0-3.99.23-5.75.69-1.76.46-2.65,1.51-2.65,3.13,0,1.39.79,3.19,2.37,5.39l15.87,21.55,16.97-19.98c2.19-2.78,3.28-4.92,3.28-6.43,0-1.04-.34-1.85-1-2.43-.67-.58-1.49-1.01-2.46-1.3-.97-.29-1.98-.46-3.01-.52-1.03-.06-1.92-.09-2.65-.09v-.7c2.92,0,5.05.06,6.39.17,1.34.12,3.04.17,5.11.17,1.21,0,2.22-.03,3.01-.09.79-.06,1.58-.09,2.37-.09s1.76-.03,2.92-.09c1.15-.06,2.65-.09,4.47-.09v.7c-3.65.23-6.45.93-8.39,2.08-1.95,1.16-4.14,3.24-6.57,6.26l-19.89,23.28,21.89,29.36c2.67,3.48,5.44,6.49,8.3,9.04,2.86,2.55,6.41,3.82,10.67,3.82v.69c-2.8,0-5.11-.03-6.93-.09-1.82-.06-3.44-.11-4.83-.17-1.4-.06-2.71-.11-3.92-.17-1.22-.06-2.62-.09-4.2-.09-1.7,0-3.19.03-4.47.09-1.28.06-2.62.12-4.01.17-1.4.06-3.01.12-4.83.17-1.82.06-4.08.09-6.75.09v-.69c.85,0,1.76-.03,2.74-.09.97-.06,1.88-.2,2.74-.43.85-.23,1.58-.58,2.19-1.04.61-.46.91-1.16.91-2.08,0-.7-.15-1.36-.46-2-.3-.64-.82-1.48-1.55-2.52l-17.33-23.98-19.16,22.24c-.73.93-1.37,1.85-1.92,2.78-.55.93-.82,1.8-.82,2.61,0,1.04.33,1.85,1,2.43.67.58,1.46,1.02,2.37,1.3.91.29,1.85.49,2.83.61.97.12,1.82.17,2.55.17v.69c-2.8,0-4.99-.06-6.57-.17-1.58-.11-3.41-.17-5.47-.17-1.22,0-2.28.03-3.19.09-.91.06-1.86.09-2.83.09s-2.04.03-3.19.09c-1.16.06-2.53.09-4.11.09v-.69c3.77,0,6.84-.64,9.21-1.91,2.37-1.27,5.02-3.65,7.94-7.12l20.8-23.98-22.26-29.89c-2.43-3.24-4.68-5.88-6.75-7.91-2.07-2.03-4.99-3.04-8.76-3.04v-.7Z"/>
      <path class="cls-1" d="M216.74,395.19c.61,1.28,1.43,2.27,2.46,2.96,1.03.7,2.25,1.13,3.65,1.31,1.4.17,2.89.26,4.47.26v.69c-2.55,0-4.65-.03-6.29-.09-1.64-.06-3.16-.11-4.56-.17-1.4-.06-2.74-.11-4.01-.17-1.28-.06-2.71-.09-4.29-.09-2.31,0-4.14.03-5.47.09-1.34.06-2.59.12-3.74.17-1.16.06-2.43.12-3.83.17-1.4.06-3.26.09-5.56.09v-.69c1.58,0,3.07-.09,4.47-.26,1.4-.17,2.61-.61,3.65-1.3,1.03-.7,1.85-1.68,2.46-2.95.61-1.27.91-3.07.91-5.39v-91.92c0-4.17-1.03-6.86-3.1-8.08-2.07-1.22-4.87-1.82-8.39-1.82v-.7c4.5-.46,8.85-1.22,13.04-2.26s8.54-2.32,13.04-3.82v55.78c3.04-4.17,6.84-7.5,11.4-9.99,4.56-2.49,10.31-3.74,17.24-3.74,6.45,0,11.4,1.19,14.87,3.56,3.47,2.38,6.02,5.24,7.66,8.6,1.64,3.36,2.58,6.81,2.83,10.34.24,3.53.36,6.4.36,8.6v35.45c0,2.32.3,4.11.91,5.39.61,1.28,1.43,2.26,2.46,2.95,1.03.69,2.25,1.13,3.65,1.3,1.4.17,2.89.26,4.47.26v.69c-2.55,0-4.65-.03-6.29-.09-1.64-.06-3.13-.11-4.47-.17-1.34-.06-2.65-.11-3.92-.17-1.28-.06-2.71-.09-4.29-.09-1.7,0-3.16.03-4.38.09-1.22.06-2.49.12-3.83.17-1.34.06-2.83.12-4.47.17-1.64.06-3.68.09-6.11.09v-.69c1.58,0,3.07-.09,4.47-.26,1.4-.17,2.61-.61,3.65-1.31,1.03-.69,1.85-1.68,2.46-2.96.61-1.28.91-3.08.91-5.4v-39.88c0-1.39-.09-3.45-.27-6.18-.18-2.73-.79-5.49-1.82-8.27-1.03-2.79-2.65-5.2-4.83-7.23-2.19-2.03-5.35-3.05-9.49-3.05-3.16,0-6.11.55-8.85,1.66-2.74,1.1-5.17,2.58-7.3,4.44-2.13,1.86-3.8,4.03-5.02,6.53-1.22,2.5-1.82,5.2-1.82,8.1v43.89c0,2.32.3,4.12.91,5.4Z"/>
      <path class="cls-1" d="M300.66,339.77c0-2.2-.31-3.97-.91-5.3-.61-1.33-1.43-2.35-2.46-3.04-1.04-.69-2.25-1.13-3.65-1.3-1.4-.17-2.89-.26-4.47-.26v-.69c4.5-.46,8.88-1.19,13.14-2.17,4.26-.98,8.63-2.29,13.14-3.91v66.72c0,2.32.3,4.11.91,5.39.61,1.28,1.43,2.26,2.46,2.95,1.03.69,2.25,1.13,3.65,1.3,1.4.17,2.89.26,4.47.26v.69c-2.55,0-4.65-.03-6.29-.09-1.64-.06-3.1-.11-4.38-.17-1.28-.06-2.55-.11-3.83-.17-1.28-.06-2.71-.09-4.29-.09-1.71,0-3.19.03-4.47.09-1.28.06-2.59.12-3.92.17-1.34.06-2.83.12-4.47.17-1.64.06-3.68.09-6.11.09v-.69c1.58,0,3.07-.09,4.47-.26,1.4-.17,2.61-.61,3.65-1.3,1.03-.7,1.85-1.68,2.46-2.95.61-1.27.91-3.07.91-5.39v-50.04ZM305.59,287.82c2.8,0,5.14.9,7.02,2.69,1.88,1.8,2.83,4.03,2.83,6.69s-.94,4.72-2.83,6.52c-1.89,1.8-4.23,2.69-7.02,2.69s-4.96-.9-6.84-2.69c-1.89-1.79-2.83-3.97-2.83-6.52s.94-4.89,2.83-6.69c1.88-1.79,4.16-2.69,6.84-2.69Z"/>
      <path class="cls-1" d="M343.17,298.07c0-2.2-.31-3.97-.91-5.3-.61-1.33-1.46-2.35-2.55-3.04-1.09-.69-2.37-1.13-3.83-1.3s-3.1-.26-4.93-.26v-.69c4.5-.35,9.06-1.04,13.68-2.08,4.62-1.04,9.06-2.37,13.32-4v51.26c2.31-2.32,5.29-4.37,8.94-6.17,3.65-1.79,8.39-2.69,14.23-2.69s11.1.96,15.78,2.87c4.68,1.91,8.67,4.55,11.95,7.91,3.29,3.36,5.81,7.36,7.57,11.99,1.76,4.63,2.64,9.62,2.64,14.94s-.82,10.83-2.46,15.81c-1.64,4.98-4.11,9.36-7.39,13.12-3.28,3.77-7.42,6.75-12.41,8.95-4.99,2.2-10.83,3.3-17.51,3.3-5.6,0-10.4-1.04-14.41-3.13-4.01-2.09-7.6-4.81-10.76-8.17l-10.03,10.08h-.91v-103.39ZM402.28,363.05c0-4.44-.46-8.94-1.37-13.5-.91-4.56-2.37-8.68-4.38-12.36-2.01-3.68-4.53-6.66-7.57-8.94-3.04-2.28-6.69-3.42-10.95-3.42-3.53,0-6.57.56-9.12,1.67-2.55,1.11-4.65,2.45-6.29,4.03-1.64,1.58-2.83,3.33-3.56,5.26s-1.09,3.65-1.09,5.17v39.45c0,4.33.61,7.86,1.82,10.61,1.21,2.75,2.77,4.91,4.65,6.49,1.88,1.58,3.95,2.66,6.2,3.24,2.25.58,4.47.88,6.66.88,4.86,0,8.91-1.23,12.13-3.68,3.22-2.45,5.81-5.58,7.75-9.38,1.94-3.8,3.28-7.95,4.01-12.45.73-4.5,1.09-8.86,1.09-13.06Z"/>
      <path class="cls-1" d="M440.6,339.77c0-2.2-.31-3.97-.91-5.3-.61-1.33-1.43-2.35-2.46-3.04-1.03-.69-2.25-1.13-3.65-1.3-1.4-.17-2.89-.26-4.47-.26v-.69c4.5-.46,8.88-1.19,13.14-2.17,4.26-.98,8.63-2.29,13.14-3.91v66.72c0,2.32.3,4.11.91,5.39.61,1.28,1.43,2.26,2.46,2.95,1.03.69,2.25,1.13,3.65,1.3,1.4.17,2.89.26,4.47.26v.69c-2.55,0-4.65-.03-6.29-.09-1.64-.06-3.1-.11-4.38-.17-1.28-.06-2.55-.11-3.83-.17-1.28-.06-2.71-.09-4.29-.09-1.7,0-3.19.03-4.47.09-1.28.06-2.58.12-3.92.17-1.34.06-2.83.12-4.47.17-1.64.06-3.68.09-6.11.09v-.69c1.58,0,3.07-.09,4.47-.26,1.4-.17,2.61-.61,3.65-1.3,1.03-.7,1.85-1.68,2.46-2.95.61-1.27.91-3.07.91-5.39v-50.04ZM445.52,287.82c2.8,0,5.14.9,7.02,2.69,1.88,1.8,2.83,4.03,2.83,6.69s-.94,4.72-2.83,6.52c-1.89,1.8-4.23,2.69-7.02,2.69s-4.96-.9-6.84-2.69c-1.89-1.79-2.83-3.97-2.83-6.52s.94-4.89,2.83-6.69c1.88-1.79,4.17-2.69,6.84-2.69Z"/>
      <path class="cls-1" d="M507,402.5c-4.26,0-7.75-.58-10.49-1.74-2.74-1.16-4.9-2.76-6.48-4.79-1.58-2.03-2.68-4.38-3.28-7.05-.61-2.67-.91-5.52-.91-8.54v-52.77h-10.4v-.59c2.55-.81,5.08-1.99,7.57-3.55,2.49-1.56,4.8-3.29,6.93-5.19,2.13-1.91,4.04-4.01,5.75-6.32,1.7-2.31,3.1-4.68,4.2-7.1h.73v21.72h18.97v1.04h-18.97v48.54c0,2.68.06,5.41.18,8.21.12,2.79.58,5.35,1.37,7.68.79,2.33,1.98,4.22,3.56,5.67,1.58,1.46,3.83,2.18,6.75,2.18,3.16,0,5.81-.74,7.94-2.22,2.13-1.48,3.86-3.23,5.2-5.25l.73.52c-1.95,2.78-4.5,5.07-7.66,6.86-3.16,1.79-7.06,2.69-11.68,2.69Z"/>
      <path class="cls-1" d="M543.31,339.77c0-2.2-.31-3.97-.91-5.3-.61-1.33-1.43-2.35-2.46-3.04-1.03-.69-2.25-1.13-3.65-1.3-1.4-.17-2.89-.26-4.47-.26v-.69c4.5-.46,8.88-1.19,13.14-2.17,4.26-.98,8.63-2.29,13.14-3.91v66.72c0,2.32.3,4.11.91,5.39.61,1.28,1.43,2.26,2.46,2.95,1.03.69,2.25,1.13,3.65,1.3,1.4.17,2.89.26,4.47.26v.69c-2.55,0-4.65-.03-6.29-.09-1.64-.06-3.1-.11-4.38-.17-1.28-.06-2.55-.11-3.83-.17-1.28-.06-2.71-.09-4.29-.09-1.7,0-3.19.03-4.47.09-1.28.06-2.58.12-3.92.17-1.34.06-2.83.12-4.47.17-1.64.06-3.68.09-6.11.09v-.69c1.58,0,3.07-.09,4.47-.26,1.4-.17,2.61-.61,3.65-1.3,1.03-.7,1.85-1.68,2.46-2.95.61-1.27.91-3.07.91-5.39v-50.04ZM548.24,287.82c2.8,0,5.14.9,7.02,2.69,1.88,1.8,2.83,4.03,2.83,6.69s-.94,4.72-2.83,6.52c-1.89,1.8-4.23,2.69-7.02,2.69s-4.96-.9-6.84-2.69c-1.89-1.79-2.83-3.97-2.83-6.52s.94-4.89,2.83-6.69c1.88-1.79,4.17-2.69,6.84-2.69Z"/>
      <path class="cls-1" d="M662.63,362.71c0,5.79-1.04,11.12-3.1,15.99-2.07,4.87-4.93,9.07-8.58,12.6-3.65,3.53-8.03,6.31-13.14,8.34s-10.64,3.04-16.6,3.04-11.68-1.02-16.79-3.04-9.55-4.81-13.32-8.34c-3.77-3.53-6.72-7.73-8.85-12.6-2.13-4.87-3.19-10.13-3.19-15.81,0-6.02,1.06-11.47,3.19-16.33,2.13-4.87,5.08-9.04,8.85-12.51,3.77-3.48,8.24-6.14,13.41-7.99,5.17-1.85,10.73-2.78,16.69-2.78s11.1.93,16.15,2.78c5.05,1.85,9.42,4.52,13.14,7.99,3.71,3.48,6.66,7.65,8.85,12.51s3.28,10.25,3.28,16.16ZM621.21,324.31c-4.38,0-8.15,1.1-11.31,3.29-3.16,2.19-5.78,5.07-7.84,8.65-2.07,3.58-3.62,7.7-4.65,12.37-1.04,4.67-1.55,9.43-1.55,14.27s.48,9.6,1.46,14.27c.97,4.67,2.52,8.82,4.65,12.45,2.13,3.63,4.77,6.55,7.94,8.74,3.16,2.19,6.93,3.29,11.31,3.29s8.15-1.13,11.31-3.37c3.16-2.25,5.72-5.19,7.66-8.82,1.94-3.63,3.38-7.78,4.29-12.45.91-4.67,1.37-9.43,1.37-14.27s-.49-9.57-1.46-14.18c-.98-4.61-2.46-8.71-4.47-12.28-2.01-3.57-4.56-6.46-7.66-8.65-3.1-2.19-6.78-3.29-11.04-3.29Z"/>
      <path class="cls-1" d="M683.61,334.3c-.61-1.33-1.43-2.35-2.46-3.04-1.04-.69-2.25-1.13-3.65-1.3-1.4-.17-2.89-.26-4.47-.26v-.7c4.26-.58,8.15-1.39,11.68-2.43,3.53-1.04,7.24-2.37,11.13-4,.61,2.9,1.12,5.88,1.55,8.95.42,3.07.7,5.59.82,7.56,2.8-4.87,6.75-8.72,11.86-11.56,5.11-2.84,10.7-4.26,16.79-4.26s11.22,1.04,14.69,3.13c3.47,2.09,6.02,4.63,7.66,7.65,1.64,3.01,2.61,6.17,2.92,9.47.3,3.3.46,6.23.46,8.77v37.53c0,2.32.3,4.11.91,5.39.61,1.28,1.43,2.26,2.46,2.95,1.03.69,2.25,1.13,3.65,1.3,1.4.17,2.89.26,4.47.26v.69c-2.55,0-4.65-.03-6.29-.09-1.64-.06-3.1-.11-4.38-.17-1.28-.06-2.53-.11-3.74-.17-1.22-.06-2.62-.09-4.2-.09-1.7,0-3.19.03-4.47.09-1.28.06-2.59.12-3.92.17-1.34.06-2.86.12-4.56.17-1.71.06-3.77.09-6.2.09v-.69c1.58,0,3.07-.09,4.47-.26,1.4-.17,2.61-.61,3.65-1.3,1.03-.69,1.85-1.67,2.46-2.95.61-1.27.91-3.06.91-5.37v-40.56c0-1.38-.09-3.38-.27-5.98-.18-2.6-.79-5.2-1.82-7.8-1.04-2.6-2.71-4.85-5.02-6.76-2.31-1.91-5.6-2.86-9.85-2.86-2.55,0-5.11.52-7.66,1.56-2.55,1.04-4.87,2.51-6.93,4.42-2.07,1.91-3.74,4.19-5.02,6.85-1.28,2.66-1.92,5.55-1.92,8.67v42.47c0,2.31.3,4.1.91,5.37.61,1.27,1.43,2.25,2.46,2.95,1.03.7,2.25,1.13,3.65,1.3,1.4.17,2.89.26,4.47.26v.69c-2.55,0-4.65-.03-6.29-.09-1.64-.06-3.16-.11-4.56-.17-1.4-.06-2.74-.11-4.01-.17-1.28-.06-2.71-.09-4.29-.09-1.7,0-3.16.03-4.38.09-1.22.06-2.46.12-3.74.17-1.28.06-2.74.12-4.38.17-1.64.06-3.68.09-6.11.09v-.69c1.58,0,3.07-.09,4.47-.26,1.4-.17,2.61-.61,3.65-1.3,1.03-.7,1.85-1.68,2.46-2.95.61-1.27.91-3.07.91-5.39v-50.22c0-2.2-.3-3.97-.91-5.3Z"/>
    </g>
  </g>
</svg>