<?xml version="1.0" encoding="UTF-8"?>
<svg id="Layer_2" data-name="Layer 2" xmlns="http://www.w3.org/2000/svg" viewBox="0 0 286.04 64.88">
  <defs>
    <style>
      .cls-1 {
        fill: #000;
        stroke-width: 0px;
      }
    </style>
  </defs>
  <g id="_レイヤー_1" data-name="レイヤー 1">
    <g>
      <path class="cls-1" d="M24.28,20.48c0,.72,0,1.51.02,2.38.01.87.05,1.57.1,2.1-.93.08-1.79.29-2.58.64-.79.35-1.6.71-2.44,1.1-.84.39-1.75.73-2.74,1.04-.99.31-2.13.46-3.44.46-1.95,0-3.71-.33-5.3-.98-1.59-.65-2.94-1.58-4.06-2.78-1.12-1.2-1.99-2.63-2.6-4.3-.61-1.67-.92-3.51-.92-5.54s.35-3.87,1.04-5.6,1.66-3.23,2.9-4.48c1.24-1.25,2.7-2.24,4.38-2.96,1.68-.72,3.52-1.08,5.52-1.08,1.49,0,2.83.22,4,.66,1.17.44,2.35,1.05,3.52,1.82l1.36-1.84h.16c-.05.93-.12,1.7-.2,2.3-.08.6-.12,1.19-.12,1.78v.88c0,.24,0,.49.02.76.01.27.02.57.02.92v1.32h-.24c-.08-1.2-.33-2.31-.74-3.34-.41-1.03-.99-1.91-1.72-2.64-.73-.73-1.61-1.31-2.64-1.74-1.03-.43-2.19-.64-3.5-.64-1.12,0-2.24.31-3.36.92-1.12.61-2.13,1.51-3.02,2.7-.89,1.19-1.62,2.65-2.18,4.4-.56,1.75-.84,3.75-.84,6.02,0,1.25.13,2.64.4,4.16.27,1.52.73,2.95,1.38,4.3.65,1.35,1.55,2.47,2.68,3.38,1.13.91,2.57,1.36,4.3,1.36.83,0,1.65-.13,2.48-.38.83-.25,1.57-.65,2.24-1.2.67-.55,1.21-1.25,1.64-2.12.43-.87.64-1.9.64-3.1,0-1.31-.27-2.24-.8-2.8-.53-.56-1.52-.84-2.96-.84v-.16c.8,0,1.45,0,1.96.02.51.01.95.03,1.32.06.37.03.72.05,1.04.06s.71.02,1.16.02c.43,0,.79,0,1.1-.02.31-.01.64-.03,1-.06.36-.03.79-.05,1.28-.06.49-.01,1.14-.02,1.94-.02v.16c-1.15,0-1.97.19-2.46.58-.49.39-.74,1.18-.74,2.38Z"/>
      <path class="cls-1" d="M31.08,3.02c-.13-.31-.31-.54-.54-.7-.23-.16-.49-.26-.8-.3-.31-.04-.63-.06-.98-.06v-.16c.99-.11,1.95-.27,2.88-.5.93-.23,1.89-.53,2.88-.9v24.84c0,.53.07.95.2,1.24.13.29.31.52.54.68.23.16.49.26.8.3.31.04.63.06.98.06v.16c-.56,0-1.02,0-1.38-.02s-.69-.03-1-.04c-.31-.01-.6-.03-.88-.04-.28-.01-.59-.02-.94-.02-.37,0-.69,0-.96.02s-.54.03-.82.04-.6.03-.96.04-.81.02-1.34.02v-.16c.35,0,.67-.02.98-.06.31-.04.57-.14.8-.3.23-.16.41-.39.54-.68.13-.29.2-.71.2-1.24V4.24c0-.51-.07-.91-.2-1.22Z"/>
      <path class="cls-1" d="M57.56,19c0,1.33-.23,2.56-.68,3.68-.45,1.12-1.08,2.09-1.88,2.9-.8.81-1.76,1.45-2.88,1.92-1.12.47-2.33.7-3.64.7s-2.56-.23-3.68-.7c-1.12-.47-2.09-1.11-2.92-1.92-.83-.81-1.47-1.78-1.94-2.9-.47-1.12-.7-2.33-.7-3.64,0-1.39.23-2.64.7-3.76.47-1.12,1.11-2.08,1.94-2.88.83-.8,1.81-1.41,2.94-1.84,1.13-.43,2.35-.64,3.66-.64s2.43.21,3.54.64c1.11.43,2.07,1.04,2.88,1.84s1.46,1.76,1.94,2.88c.48,1.12.72,2.36.72,3.72ZM48.48,10.16c-.96,0-1.79.25-2.48.76-.69.5-1.27,1.17-1.72,1.99-.45.82-.79,1.77-1.02,2.85-.23,1.08-.34,2.17-.34,3.29s.11,2.21.32,3.29c.21,1.08.55,2.03,1.02,2.87.47.84,1.05,1.51,1.74,2.01.69.5,1.52.76,2.48.76s1.79-.26,2.48-.78c.69-.52,1.25-1.2,1.68-2.03.43-.84.74-1.79.94-2.87.2-1.08.3-2.17.3-3.29s-.11-2.2-.32-3.27c-.21-1.06-.54-2-.98-2.83-.44-.82-1-1.49-1.68-1.99-.68-.5-1.49-.76-2.42-.76Z"/>
      <path class="cls-1" d="M61.64,4.12c0-.51-.07-.91-.2-1.22-.13-.31-.32-.54-.56-.7-.24-.16-.52-.26-.84-.3s-.68-.06-1.08-.06v-.16c.99-.08,1.99-.24,3-.48,1.01-.24,1.99-.55,2.92-.92v11.8c.51-.53,1.16-1.01,1.96-1.42.8-.41,1.84-.62,3.12-.62s2.43.22,3.46.66c1.03.44,1.9,1.05,2.62,1.82s1.27,1.69,1.66,2.76c.39,1.07.58,2.21.58,3.44s-.18,2.49-.54,3.64c-.36,1.15-.9,2.15-1.62,3.02-.72.87-1.63,1.55-2.72,2.06-1.09.51-2.37.76-3.84.76-1.23,0-2.28-.24-3.16-.72-.88-.48-1.67-1.11-2.36-1.88l-2.2,2.32h-.2V4.12ZM74.6,19.08c0-1.02-.1-2.06-.3-3.11-.2-1.05-.52-2-.96-2.85-.44-.85-.99-1.53-1.66-2.06-.67-.53-1.47-.79-2.4-.79-.77,0-1.44.13-2,.38-.56.26-1.02.57-1.38.93-.36.36-.62.77-.78,1.21s-.24.84-.24,1.19v9.08c0,1,.13,1.81.4,2.44.27.63.61,1.13,1.02,1.49.41.36.87.61,1.36.75.49.13.98.2,1.46.2,1.07,0,1.95-.28,2.66-.85.71-.57,1.27-1.29,1.7-2.16.43-.87.72-1.83.88-2.87.16-1.04.24-2.04.24-3.01Z"/>
      <path class="cls-1" d="M87.28,10.16c-.32,0-.68.04-1.08.12-.4.08-.78.19-1.14.34-.36.15-.67.32-.92.53-.25.2-.38.42-.38.67,0,.05.04.2.12.42s.12.53.12.91c0,.3-.09.61-.28.95-.19.34-.53.5-1.04.5-.32,0-.62-.11-.9-.32-.28-.21-.42-.6-.42-1.16,0-.59.25-1.09.74-1.5.49-.41,1.1-.75,1.82-1,.72-.25,1.47-.43,2.24-.54s1.44-.16,2-.16c.91,0,1.76.09,2.56.26.8.17,1.49.47,2.08.9.59.43,1.05,1,1.38,1.72.33.72.5,1.63.5,2.73v8.78c0,.21,0,.47.02.78.01.31.06.6.14.88.08.28.21.52.4.72.19.2.44.3.76.3.37,0,.69-.16.94-.47.25-.32.45-.58.58-.81l.16.08c-.05.13-.16.33-.32.58-.16.25-.37.51-.64.76-.27.25-.59.48-.96.68-.37.2-.8.3-1.28.3-.91,0-1.59-.25-2.06-.76-.47-.51-.77-1.12-.9-1.84-.93.77-1.91,1.4-2.92,1.88-1.01.48-2.15.72-3.4.72-.59,0-1.13-.08-1.64-.24-.51-.16-.95-.41-1.34-.74-.39-.33-.69-.75-.92-1.26-.23-.51-.34-1.11-.34-1.8,0-.88.22-1.61.66-2.18.44-.57.91-1.02,1.42-1.34.8-.53,1.71-1.01,2.72-1.42,1.01-.41,2.03-.85,3.04-1.3.29-.13.6-.27.92-.42s.61-.29.86-.42.46-.26.62-.38c.16-.12.24-.25.24-.38v-1.29c0-.38-.03-.84-.1-1.39-.07-.55-.24-1.07-.52-1.57-.28-.5-.7-.92-1.26-1.29-.56-.36-1.32-.54-2.28-.54ZM91.44,16.84c-.77.4-1.61.81-2.52,1.22-.91.42-1.69.85-2.36,1.31-.77.54-1.34,1.2-1.7,1.99s-.54,1.53-.54,2.23c0,.4.05.8.14,1.21.09.4.26.76.5,1.08.24.32.55.59.92.8.37.21.84.32,1.4.32.93,0,1.74-.16,2.42-.48.68-.32,1.26-.74,1.74-1.25v-8.43Z"/>
      <path class="cls-1" d="M101,3.02c-.13-.31-.31-.54-.54-.7-.23-.16-.49-.26-.8-.3-.31-.04-.63-.06-.98-.06v-.16c.99-.11,1.95-.27,2.88-.5.93-.23,1.89-.53,2.88-.9v24.84c0,.53.07.95.2,1.24.13.29.31.52.54.68.23.16.49.26.8.3.31.04.63.06.98.06v.16c-.56,0-1.02,0-1.38-.02s-.69-.03-1-.04c-.31-.01-.6-.03-.88-.04-.28-.01-.59-.02-.94-.02-.37,0-.69,0-.96.02s-.54.03-.82.04-.6.03-.96.04-.81.02-1.34.02v-.16c.35,0,.67-.02.98-.06.31-.04.57-.14.8-.3.23-.16.41-.39.54-.68.13-.29.2-.71.2-1.24V4.24c0-.51-.07-.91-.2-1.22Z"/>
      <path class="cls-1" d="M134.64,28.32l-6.16-10.88h-2.64v10.88h-5.6V.4h10.48c2.16,0,4,.38,5.52,1.14,1.52.76,2.66,1.79,3.42,3.08.76,1.29,1.14,2.74,1.14,4.34,0,1.84-.53,3.5-1.6,4.98-1.07,1.48-2.65,2.5-4.76,3.06l6.68,11.32h-6.48ZM125.84,13.24h4.68c1.52,0,2.65-.37,3.4-1.1.75-.73,1.12-1.75,1.12-3.06s-.37-2.27-1.12-2.98c-.75-.71-1.88-1.06-3.4-1.06h-4.68v8.2Z"/>
      <path class="cls-1" d="M151.68.4v27.92h-5.6V.4h5.6Z"/>
      <path class="cls-1" d="M162.98,27.6c-1.56-.67-2.79-1.63-3.7-2.88-.91-1.25-1.37-2.73-1.4-4.44h6c.08,1.15.49,2.05,1.22,2.72.73.67,1.74,1,3.02,1s2.33-.31,3.08-.94,1.12-1.45,1.12-2.46c0-.83-.25-1.51-.76-2.04-.51-.53-1.14-.95-1.9-1.26-.76-.31-1.81-.65-3.14-1.02-1.81-.53-3.29-1.06-4.42-1.58-1.13-.52-2.11-1.31-2.92-2.36-.81-1.05-1.22-2.46-1.22-4.22,0-1.65.41-3.09,1.24-4.32.83-1.23,1.99-2.17,3.48-2.82,1.49-.65,3.2-.98,5.12-.98,2.88,0,5.22.7,7.02,2.1,1.8,1.4,2.79,3.35,2.98,5.86h-6.16c-.05-.96-.46-1.75-1.22-2.38-.76-.63-1.77-.94-3.02-.94-1.09,0-1.97.28-2.62.84-.65.56-.98,1.37-.98,2.44,0,.75.25,1.37.74,1.86.49.49,1.11.89,1.84,1.2.73.31,1.77.66,3.1,1.06,1.81.53,3.29,1.07,4.44,1.6,1.15.53,2.13,1.33,2.96,2.4.83,1.07,1.24,2.47,1.24,4.2,0,1.49-.39,2.88-1.16,4.16-.77,1.28-1.91,2.3-3.4,3.06-1.49.76-3.27,1.14-5.32,1.14-1.95,0-3.7-.33-5.26-1Z"/>
      <path class="cls-1" d="M188.92,26.76c-2.19-1.23-3.92-2.93-5.2-5.1-1.28-2.17-1.92-4.63-1.92-7.38s.64-5.17,1.92-7.34c1.28-2.17,3.01-3.87,5.2-5.1,2.19-1.23,4.59-1.84,7.2-1.84s5.05.61,7.22,1.84c2.17,1.23,3.89,2.93,5.16,5.1,1.27,2.17,1.9,4.62,1.9,7.34s-.63,5.21-1.9,7.38c-1.27,2.17-2.99,3.87-5.18,5.1-2.19,1.23-4.59,1.84-7.2,1.84s-5.01-.61-7.2-1.84ZM200.56,22.46c1.28-.76,2.28-1.85,3-3.26.72-1.41,1.08-3.05,1.08-4.92s-.36-3.5-1.08-4.9c-.72-1.4-1.72-2.47-3-3.22-1.28-.75-2.76-1.12-4.44-1.12s-3.17.37-4.46,1.12c-1.29.75-2.3,1.82-3.02,3.22-.72,1.4-1.08,3.03-1.08,4.9s.36,3.51,1.08,4.92c.72,1.41,1.73,2.5,3.02,3.26,1.29.76,2.78,1.14,4.46,1.14s3.16-.38,4.44-1.14Z"/>
      <path class="cls-1" d="M231.28,23h-11.12l-1.84,5.32h-5.88L222.48.36h6.52l10.04,27.96h-5.92l-1.84-5.32ZM229.76,18.52l-4.04-11.68-4.04,11.68h8.08Z"/>
      <path class="cls-1" d="M256.6,28.32l-6.16-10.88h-2.64v10.88h-5.6V.4h10.48c2.16,0,4,.38,5.52,1.14,1.52.76,2.66,1.79,3.42,3.08.76,1.29,1.14,2.74,1.14,4.34,0,1.84-.53,3.5-1.6,4.98-1.07,1.48-2.65,2.5-4.76,3.06l6.68,11.32h-6.48ZM247.8,13.24h4.68c1.52,0,2.65-.37,3.4-1.1.75-.73,1.12-1.75,1.12-3.06s-.37-2.27-1.12-2.98c-.75-.71-1.88-1.06-3.4-1.06h-4.68v8.2Z"/>
      <path class="cls-1" d="M286.04.4v4.52h-7.44v23.4h-5.6V4.92h-7.44V.4h20.48Z"/>
      <path class="cls-1" d="M9.6,50.36c1.2,0,2.09-.31,2.66-.92.57-.61.86-1.43.86-2.44h.16c0,.61,0,1.11-.02,1.48-.01.37-.02.67-.02.9s0,.42-.02.58c-.01.16-.02.35-.02.56s0,.39.02.52c.01.13.02.31.02.54s0,.51.02.86c.01.35.02.83.02,1.44h-.16c0-.96-.29-1.75-.86-2.36-.57-.61-1.46-.92-2.66-.92h-2.72v8.96c0,.96.09,1.75.26,2.36.17.61.48,1.09.92,1.42.44.33,1.02.56,1.74.68.72.12,1.63.18,2.72.18.96,0,1.85-.08,2.66-.24.81-.16,1.53-.44,2.16-.84.63-.4,1.15-.94,1.58-1.62.43-.68.72-1.54.88-2.58h.2l-.32,5.44c-1.17.03-2.2.05-3.08.06s-1.85.02-2.92.02c-2.27,0-4.09-.03-5.48-.1-1.39-.07-2.51-.1-3.36-.1-.43,0-.79,0-1.08.02-.29.01-.6.03-.92.04-.32.01-.7.03-1.14.04s-1.01.02-1.7.02v-.16c.37,0,.75-.03,1.12-.1.37-.07.7-.19.98-.38.28-.19.51-.45.68-.78.17-.33.26-.78.26-1.34v-21.24c0-.56-.09-1.01-.26-1.34-.17-.33-.4-.59-.68-.78-.28-.19-.61-.31-.98-.38-.37-.07-.75-.1-1.12-.1v-.16c.69,0,1.25,0,1.68.02.43.01.79.03,1.1.04.31.01.6.03.88.04.28.01.63.02,1.06.02.91,0,2.01-.04,3.3-.12,1.29-.08,2.74-.12,4.34-.12.51,0,.98,0,1.42.02.44.01.87.03,1.28.04.41.01.84.03,1.28.04.44.01.93.02,1.46.02l.24,5.04h-.16c-.21-1.6-.87-2.82-1.98-3.66-1.11-.84-2.66-1.26-4.66-1.26-.24,0-.52,0-.84.02-.32.01-.64.03-.96.06-.32.03-.63.06-.92.1-.29.04-.53.07-.72.1-.29.05-.52.18-.68.38-.16.2-.24.57-.24,1.1v10.88h2.72Z"/>
      <path class="cls-1" d="M20.84,47.04c.53,0,.97,0,1.32.02s.66.03.94.04c.28.01.55.03.8.04.25.01.57.02.94.02.35,0,.66,0,.94-.02.28-.01.57-.03.88-.04s.65-.03,1.04-.04c.39-.01.86-.02,1.42-.02v.16c-.45,0-.87.05-1.26.16-.39.11-.58.35-.58.72,0,.32.17.73.52,1.24l3.48,4.96,3.72-4.6c.48-.64.72-1.13.72-1.48,0-.24-.07-.43-.22-.56-.15-.13-.33-.23-.54-.3-.21-.07-.43-.11-.66-.12s-.42-.02-.58-.02v-.16c.64,0,1.11.01,1.4.04.29.03.67.04,1.12.04.27,0,.49,0,.66-.02.17-.01.35-.02.52-.02s.39,0,.64-.02c.25-.01.58-.02.98-.02v.16c-.8.05-1.41.21-1.84.48-.43.27-.91.75-1.44,1.44l-4.36,5.36,4.8,6.76c.59.8,1.19,1.49,1.82,2.08.63.59,1.41.88,2.34.88v.16c-.61,0-1.12,0-1.52-.02s-.75-.03-1.06-.04c-.31-.01-.59-.03-.86-.04-.27-.01-.57-.02-.92-.02-.37,0-.7,0-.98.02-.28.01-.57.03-.88.04-.31.01-.66.03-1.06.04-.4.01-.89.02-1.48.02v-.16c.19,0,.39,0,.6-.02s.41-.05.6-.1c.19-.05.35-.13.48-.24.13-.11.2-.27.2-.48,0-.16-.03-.31-.1-.46-.07-.15-.18-.34-.34-.58l-3.8-5.52-4.2,5.12c-.16.21-.3.43-.42.64-.12.21-.18.41-.18.6,0,.24.07.43.22.56s.32.23.52.3c.2.07.41.11.62.14.21.03.4.04.56.04v.16c-.61,0-1.09-.01-1.44-.04-.35-.03-.75-.04-1.2-.04-.27,0-.5,0-.7.02-.2.01-.41.02-.62.02s-.45,0-.7.02-.55.02-.9.02v-.16c.83,0,1.5-.15,2.02-.44.52-.29,1.1-.84,1.74-1.64l4.56-5.52-4.88-6.88c-.53-.75-1.03-1.35-1.48-1.82-.45-.47-1.09-.7-1.92-.7v-.16Z"/>
      <path class="cls-1" d="M47.52,63.16c.13.29.31.52.54.68.23.16.49.26.8.3.31.04.63.06.98.06v.16c-.56,0-1.02,0-1.38-.02s-.69-.03-1-.04c-.31-.01-.6-.03-.88-.04-.28-.01-.59-.02-.94-.02-.51,0-.91,0-1.2.02-.29.01-.57.03-.82.04s-.53.03-.84.04c-.31.01-.71.02-1.22.02v-.16c.35,0,.67-.02.98-.06.31-.04.57-.14.8-.3.23-.16.41-.39.54-.68.13-.29.2-.71.2-1.24v-21.16c0-.96-.23-1.58-.68-1.86-.45-.28-1.07-.42-1.84-.42v-.16c.99-.11,1.94-.28,2.86-.52.92-.24,1.87-.53,2.86-.88v12.84c.67-.96,1.5-1.73,2.5-2.3,1-.57,2.26-.86,3.78-.86,1.41,0,2.5.27,3.26.82.76.55,1.32,1.21,1.68,1.98.36.77.57,1.57.62,2.38.05.81.08,1.47.08,1.98v8.16c0,.53.07.95.2,1.24.13.29.31.52.54.68.23.16.49.26.8.3.31.04.63.06.98.06v.16c-.56,0-1.02,0-1.38-.02s-.69-.03-.98-.04c-.29-.01-.58-.03-.86-.04-.28-.01-.59-.02-.94-.02-.37,0-.69,0-.96.02-.27.01-.55.03-.84.04s-.62.03-.98.04-.81.02-1.34.02v-.16c.35,0,.67-.02.98-.06.31-.04.57-.14.8-.3s.41-.39.54-.68c.13-.29.2-.71.2-1.24v-9.18c0-.32-.02-.79-.06-1.42s-.17-1.26-.4-1.9c-.23-.64-.58-1.2-1.06-1.66s-1.17-.7-2.08-.7c-.69,0-1.34.13-1.94.38s-1.13.59-1.6,1.02c-.47.43-.83.93-1.1,1.5-.27.58-.4,1.2-.4,1.86v10.1c0,.54.07.95.2,1.24Z"/>
      <path class="cls-1" d="M65.92,50.4c0-.51-.07-.91-.2-1.22-.13-.31-.31-.54-.54-.7-.23-.16-.49-.26-.8-.3-.31-.04-.63-.06-.98-.06v-.16c.99-.11,1.95-.27,2.88-.5.93-.23,1.89-.53,2.88-.9v15.36c0,.53.07.95.2,1.24.13.29.31.52.54.68.23.16.49.26.8.3.31.04.63.06.98.06v.16c-.56,0-1.02,0-1.38-.02s-.68-.03-.96-.04c-.28-.01-.56-.03-.84-.04-.28-.01-.59-.02-.94-.02-.37,0-.7,0-.98.02-.28.01-.57.03-.86.04-.29.01-.62.03-.98.04s-.81.02-1.34.02v-.16c.35,0,.67-.02.98-.06.31-.04.57-.14.8-.3.23-.16.41-.39.54-.68.13-.29.2-.71.2-1.24v-11.52ZM67,38.44c.61,0,1.13.21,1.54.62.41.41.62.93.62,1.54s-.21,1.09-.62,1.5c-.41.41-.93.62-1.54.62s-1.09-.21-1.5-.62c-.41-.41-.62-.91-.62-1.5s.21-1.13.62-1.54c.41-.41.91-.62,1.5-.62Z"/>
      <path class="cls-1" d="M75.24,40.8c0-.51-.07-.91-.2-1.22-.13-.31-.32-.54-.56-.7-.24-.16-.52-.26-.84-.3s-.68-.06-1.08-.06v-.16c.99-.08,1.99-.24,3-.48,1.01-.24,1.99-.55,2.92-.92v11.8c.51-.53,1.16-1.01,1.96-1.42.8-.41,1.84-.62,3.12-.62s2.43.22,3.46.66c1.03.44,1.9,1.05,2.62,1.82s1.27,1.69,1.66,2.76c.39,1.07.58,2.21.58,3.44s-.18,2.49-.54,3.64c-.36,1.15-.9,2.15-1.62,3.02-.72.87-1.63,1.55-2.72,2.06-1.09.51-2.37.76-3.84.76-1.23,0-2.28-.24-3.16-.72-.88-.48-1.67-1.11-2.36-1.88l-2.2,2.32h-.2v-23.8ZM88.2,55.76c0-1.02-.1-2.06-.3-3.11-.2-1.05-.52-2-.96-2.85-.44-.85-.99-1.53-1.66-2.06-.67-.53-1.47-.79-2.4-.79-.77,0-1.44.13-2,.38-.56.26-1.02.57-1.38.93-.36.36-.62.77-.78,1.21s-.24.84-.24,1.19v9.08c0,1,.13,1.81.4,2.44.27.63.61,1.13,1.02,1.49.41.36.87.61,1.36.75.49.13.98.2,1.46.2,1.07,0,1.95-.28,2.66-.85.71-.57,1.27-1.29,1.7-2.16.43-.87.72-1.83.88-2.87.16-1.04.24-2.04.24-3.01Z"/>
      <path class="cls-1" d="M96.6,50.4c0-.51-.07-.91-.2-1.22-.13-.31-.31-.54-.54-.7-.23-.16-.49-.26-.8-.3-.31-.04-.63-.06-.98-.06v-.16c.99-.11,1.95-.27,2.88-.5.93-.23,1.89-.53,2.88-.9v15.36c0,.53.07.95.2,1.24.13.29.31.52.54.68.23.16.49.26.8.3.31.04.63.06.98.06v.16c-.56,0-1.02,0-1.38-.02s-.68-.03-.96-.04c-.28-.01-.56-.03-.84-.04-.28-.01-.59-.02-.94-.02-.37,0-.7,0-.98.02-.28.01-.57.03-.86.04-.29.01-.62.03-.98.04s-.81.02-1.34.02v-.16c.35,0,.67-.02.98-.06.31-.04.57-.14.8-.3.23-.16.41-.39.54-.68.13-.29.2-.71.2-1.24v-11.52ZM97.68,38.44c.61,0,1.13.21,1.54.62.41.41.62.93.62,1.54s-.21,1.09-.62,1.5c-.41.41-.93.62-1.54.62s-1.09-.21-1.5-.62c-.41-.41-.62-.91-.62-1.5s.21-1.13.62-1.54c.41-.41.91-.62,1.5-.62Z"/>
      <path class="cls-1" d="M111.16,64.84c-.93,0-1.7-.13-2.3-.4s-1.07-.63-1.42-1.1c-.35-.47-.59-1.01-.72-1.62-.13-.62-.2-1.27-.2-1.97v-12.15h-2.28v-.14c.56-.19,1.11-.46,1.66-.82.55-.36,1.05-.76,1.52-1.2.47-.44.89-.92,1.26-1.46.37-.53.68-1.08.92-1.63h.16v5h4.16v.24h-4.16v11.17c0,.62.01,1.25.04,1.89.03.64.13,1.23.3,1.77s.43.97.78,1.31c.35.33.84.5,1.48.5.69,0,1.27-.17,1.74-.51.47-.34.85-.74,1.14-1.21l.16.12c-.43.64-.99,1.17-1.68,1.58-.69.41-1.55.62-2.56.62Z"/>
      <path class="cls-1" d="M119.12,50.4c0-.51-.07-.91-.2-1.22-.13-.31-.31-.54-.54-.7-.23-.16-.49-.26-.8-.3-.31-.04-.63-.06-.98-.06v-.16c.99-.11,1.95-.27,2.88-.5.93-.23,1.89-.53,2.88-.9v15.36c0,.53.07.95.2,1.24.13.29.31.52.54.68.23.16.49.26.8.3.31.04.63.06.98.06v.16c-.56,0-1.02,0-1.38-.02s-.68-.03-.96-.04c-.28-.01-.56-.03-.84-.04-.28-.01-.59-.02-.94-.02-.37,0-.7,0-.98.02-.28.01-.57.03-.86.04-.29.01-.62.03-.98.04s-.81.02-1.34.02v-.16c.35,0,.67-.02.98-.06.31-.04.57-.14.8-.3.23-.16.41-.39.54-.68.13-.29.2-.71.2-1.24v-11.52ZM120.2,38.44c.61,0,1.13.21,1.54.62.41.41.62.93.62,1.54s-.21,1.09-.62,1.5c-.41.41-.93.62-1.54.62s-1.09-.21-1.5-.62c-.41-.41-.62-.91-.62-1.5s.21-1.13.62-1.54c.41-.41.91-.62,1.5-.62Z"/>
      <path class="cls-1" d="M145.28,55.68c0,1.33-.23,2.56-.68,3.68-.45,1.12-1.08,2.09-1.88,2.9-.8.81-1.76,1.45-2.88,1.92-1.12.47-2.33.7-3.64.7s-2.56-.23-3.68-.7c-1.12-.47-2.09-1.11-2.92-1.92-.83-.81-1.47-1.78-1.94-2.9-.47-1.12-.7-2.33-.7-3.64,0-1.39.23-2.64.7-3.76.47-1.12,1.11-2.08,1.94-2.88.83-.8,1.81-1.41,2.94-1.84,1.13-.43,2.35-.64,3.66-.64s2.43.21,3.54.64c1.11.43,2.07,1.04,2.88,1.84s1.46,1.76,1.94,2.88c.48,1.12.72,2.36.72,3.72ZM136.2,46.84c-.96,0-1.79.25-2.48.76-.69.5-1.27,1.17-1.72,1.99-.45.82-.79,1.77-1.02,2.85-.23,1.08-.34,2.17-.34,3.29s.11,2.21.32,3.29c.21,1.08.55,2.03,1.02,2.87.47.84,1.05,1.51,1.74,2.01.69.5,1.52.76,2.48.76s1.79-.26,2.48-.78c.69-.52,1.25-1.2,1.68-2.03.43-.84.74-1.79.94-2.87.2-1.08.3-2.17.3-3.29s-.11-2.2-.32-3.27c-.21-1.06-.54-2-.98-2.83-.44-.82-1-1.49-1.68-1.99-.68-.5-1.49-.76-2.42-.76Z"/>
      <path class="cls-1" d="M149.88,49.14c-.13-.31-.31-.54-.54-.7-.23-.16-.49-.26-.8-.3s-.63-.06-.98-.06v-.16c.93-.13,1.79-.32,2.56-.56s1.59-.55,2.44-.92c.13.67.25,1.35.34,2.06.09.71.15,1.29.18,1.74.61-1.12,1.48-2.01,2.6-2.66,1.12-.65,2.35-.98,3.68-.98s2.46.24,3.22.72c.76.48,1.32,1.07,1.68,1.76.36.69.57,1.42.64,2.18.07.76.1,1.43.1,2.02v8.64c0,.53.07.95.2,1.24.13.29.31.52.54.68.23.16.49.26.8.3s.63.06.98.06v.16c-.56,0-1.02,0-1.38-.02-.36-.01-.68-.03-.96-.04-.28-.01-.55-.03-.82-.04-.27-.01-.57-.02-.92-.02-.37,0-.7,0-.98.02-.28.01-.57.03-.86.04s-.63.03-1,.04-.83.02-1.36.02v-.16c.35,0,.67-.02.98-.06.31-.04.57-.14.8-.3.23-.16.41-.39.54-.68.13-.29.2-.71.2-1.24v-9.34c0-.32-.02-.78-.06-1.38s-.17-1.2-.4-1.8c-.23-.6-.59-1.12-1.1-1.56-.51-.44-1.23-.66-2.16-.66-.56,0-1.12.12-1.68.36s-1.07.58-1.52,1.02c-.45.44-.82.96-1.1,1.58-.28.61-.42,1.28-.42,2v9.78c0,.53.07.94.2,1.24.13.29.31.52.54.68.23.16.49.26.8.3.31.04.63.06.98.06v.16c-.56,0-1.02,0-1.38-.02-.36-.01-.69-.03-1-.04-.31-.01-.6-.03-.88-.04-.28-.01-.59-.02-.94-.02-.37,0-.69,0-.96.02-.27.01-.54.03-.82.04-.28.01-.6.03-.96.04-.36.01-.81.02-1.34.02v-.16c.35,0,.67-.02.98-.06s.57-.14.8-.3c.23-.16.41-.39.54-.68.13-.29.2-.71.2-1.24v-11.56c0-.51-.07-.91-.2-1.22Z"/>
    </g>
  </g>
</svg>