<?xml version="1.0" encoding="UTF-8"?>
<svg id="Layer_2" data-name="Layer 2" xmlns="http://www.w3.org/2000/svg" viewBox="0 0 320 391.17">
  <defs>
    <style>
      .cls-1 {
        fill: #000;
      }

      .cls-1, .cls-2 {
        stroke-width: 0px;
      }

      .cls-2 {
        fill: #ffdf00;
        fill-rule: evenodd;
      }
    </style>
  </defs>
  <g id="_レイヤー_1" data-name="レイヤー 1">
    <path class="cls-1" d="M123.84,329.83v25.95h-10.96v-26.17c0-6.01-.72-8.68-1.32-9.86-.86-1.68-2.14-3-3.93-4.04-1.8-1.04-4.25-1.57-6.77-1.57-3.6,0-6.69,1.02-8.91,3.13-1.11,1.08-1.9,2.33-2.39,3.81-.36,1.08-.79,3.43-.79,8.53v26.17h-10.96v-26.02c0-4.46.29-7.77.87-10.12.58-2.33,1.32-4.31,2.2-5.9.89-1.6,1.99-3.06,3.27-4.33,4.19-4.13,9.96-6.23,16.63-6.23s12.61,2.08,16.77,6.19c1.29,1.3,2.39,2.77,3.27,4.36.88,1.59,1.61,3.54,2.17,5.79.56,2.26.84,5.64.84,10.32ZM319.16,319.51c-.56-2.25-1.29-4.2-2.17-5.79-.88-1.6-1.98-3.06-3.27-4.36-4.16-4.1-9.98-6.19-16.77-6.19s-12.44,2.09-16.63,6.23c-1.29,1.27-2.39,2.72-3.27,4.33-.88,1.59-1.62,3.57-2.2,5.9-.59,2.35-.87,5.67-.87,10.12v26.02h10.96v-26.17c0-5.1.43-7.46.79-8.53.49-1.48,1.28-2.73,2.39-3.81,2.21-2.1,5.3-3.13,8.91-3.13,2.51,0,4.97.53,6.77,1.57,1.79,1.03,3.07,2.35,3.93,4.04.6,1.18,1.32,3.85,1.32,9.86v26.17h10.96v-25.95c0-4.68-.28-8.05-.84-10.32ZM183.02,342.98c-3.43,2.48-7.33,3.37-10.89,3.37-5.02,0-7.74-2.8-7.74-9.07v-22.06h16.44v-9.86h-16.44v-11.72c0-.29-.34-.44-.55-.24l-18.84,18.23c-.24.21-.33.46-.33.76v2.84h8.77v20.72c0,4.79.22,8.04.66,9.74.44,1.71.99,3.09,1.64,4.14.65,1.06,1.47,2,2.47,2.85,3.18,2.8,7.37,4.19,12.17,4.19,4.49,0,8.69-1.16,12.53-3.2.07-.04.12-.11.12-.2v-10.49ZM230.19,356.87c-17.58,0-26.35-12.79-26.35-26.88,0-8.02,2.31-14.26,6.93-19.28,4.62-5.02,10.6-7.53,17.97-7.53s12.75,2.44,16.98,7.33c4.23,4.89,6.34,11.16,6.34,19.37,0,0-.02,1.2-.07,2.15-.06,1.11-.23,2.38-.23,2.38h-36.89c.75,3.35,2.33,5.93,4.72,8.18,3.16,2.98,7.23,4.47,12.24,4.47s10.4-1.15,14.76-3.78v10.96s-6.24,2.64-16.39,2.64M214.9,325.64h26.2c0-3.75-1.56-7.65-3.6-9.53-2.22-2.05-5.19-3.07-8.94-3.07s-6.81,1.02-9.2,3.07c-2.2,1.88-4.45,5.78-4.45,9.53ZM26.98,356.87c-7.75,0-14.19-2.58-19.31-7.75-5.03-5.08-7.58-11.44-7.67-19.1.09-7.65,2.64-14.02,7.67-19.1,5.12-5.17,11.56-7.75,19.31-7.75s14.62,2.55,19.89,7.64c5.28,5.09,7.92,11.49,7.92,19.18,0,0,0,.02,0,.03s0,.02,0,.03c0,7.69-2.64,14.09-7.92,19.18-5.28,5.09-11.91,7.64-19.89,7.64ZM27.33,346.54c5.01,0,8.49-1.61,11.79-4.84,3.18-3.12,4.37-7.01,4.48-11.69-.11-4.67-1.3-8.57-4.48-11.69-3.29-3.22-6.77-4.84-11.79-4.84s-8.52,1.55-11.76,4.65c-3.22,3.09-4.39,7.04-4.4,11.88.01,4.83,1.18,8.79,4.4,11.88,3.23,3.1,6.7,4.65,11.76,4.65ZM95.34,386.47c-.75.92-1.88,1.38-3.4,1.38s-2.65-.46-3.4-1.38c-.75-.92-1.12-2.03-1.12-3.33s.37-2.38,1.12-3.32c.75-.94,1.88-1.4,3.4-1.4s2.65.47,3.4,1.4c.75.94,1.12,2.04,1.12,3.32s-.37,2.41-1.12,3.33ZM93.49,385.19c.36-.48.54-1.16.54-2.05s-.18-1.57-.54-2.05c-.36-.48-.88-.72-1.56-.72s-1.2.24-1.56.72c-.37.48-.55,1.16-.55,2.05s.18,1.57.55,2.05c.37.48.89.72,1.56.72s1.2-.24,1.56-.72ZM105.08,379.21c.58.48.87,1.27.87,2.38v5.96h-2.37v-5.38c0-.47-.06-.82-.18-1.07-.23-.45-.66-.68-1.29-.68-.78,0-1.31.33-1.6,1-.15.35-.23.8-.23,1.35v4.79h-2.31v-8.83h2.24v1.29c.3-.45.58-.78.84-.98.47-.36,1.07-.54,1.8-.54.91,0,1.66.24,2.23.72ZM112.63,378.85c.42.24.76.56,1.01.98v-4.22h2.35v11.95h-2.25v-1.23c-.33.52-.71.91-1.13,1.14-.42.24-.95.36-1.58.36-1.03,0-1.9-.42-2.61-1.25-.71-.84-1.06-1.91-1.06-3.22,0-1.51.35-2.7,1.04-3.56.7-.87,1.62-1.3,2.79-1.3.54,0,1.01.12,1.43.35ZM113.2,385.15c.34-.49.51-1.12.51-1.89,0-1.08-.27-1.86-.82-2.32-.34-.28-.72-.42-1.17-.42-.68,0-1.17.26-1.49.77-.32.51-.47,1.15-.47,1.9,0,.82.16,1.47.48,1.96.32.49.81.73,1.47.73s1.15-.24,1.49-.73ZM125.3,386.47c-.75.92-1.88,1.38-3.4,1.38s-2.65-.46-3.4-1.38c-.75-.92-1.12-2.03-1.12-3.33s.37-2.38,1.12-3.32c.75-.94,1.88-1.4,3.4-1.4s2.65.47,3.4,1.4c.75.94,1.12,2.04,1.12,3.32s-.37,2.41-1.12,3.33ZM123.45,385.19c.36-.48.54-1.16.54-2.05s-.18-1.57-.54-2.05c-.36-.48-.88-.72-1.56-.72s-1.2.24-1.56.72c-.37.48-.55,1.16-.55,2.05s.18,1.57.55,2.05c.37.48.89.72,1.56.72s1.2-.24,1.56-.72ZM140.25,379.77c.66.84.99,1.92.99,3.25s-.33,2.51-.98,3.42c-.65.9-1.56,1.36-2.73,1.36-.73,0-1.32-.15-1.77-.44-.27-.17-.55-.48-.86-.91v1.11h-2.28v-12.05h2.31v4.36c.29-.41.62-.73.97-.94.42-.27.95-.41,1.6-.41,1.17,0,2.09.42,2.75,1.26ZM138.32,385.16c.33-.48.5-1.11.5-1.9,0-.63-.08-1.15-.25-1.56-.31-.78-.88-1.17-1.72-1.17s-1.43.38-1.74,1.14c-.16.41-.25.93-.25,1.57,0,.76.17,1.39.51,1.88s.85.75,1.55.75c.6,0,1.07-.24,1.4-.72ZM147.77,378.5s.1,0,.2.01v2.37c-.15-.02-.28-.03-.39-.03-.11,0-.21,0-.28,0-.93,0-1.56.3-1.88.91-.18.34-.27.87-.27,1.57v4.23h-2.33v-8.85h2.21v1.54c.36-.59.67-.99.93-1.21.43-.36,1-.54,1.69-.54.04,0,.08,0,.11,0ZM152.82,382.17c.43-.05.74-.12.92-.2.33-.14.5-.36.5-.66,0-.36-.13-.61-.38-.75-.25-.14-.63-.21-1.12-.21-.55,0-.95.14-1.18.41-.16.2-.27.47-.33.81h-2.23c.05-.77.27-1.41.65-1.91.61-.78,1.67-1.17,3.16-1.17.97,0,1.84.19,2.59.58.76.38,1.13,1.11,1.13,2.18v4.06c0,.28,0,.62.02,1.02.02.3.06.51.14.62.08.11.19.2.34.27v.34h-2.52c-.07-.18-.12-.35-.15-.5s-.05-.34-.06-.54c-.32.35-.69.64-1.11.88-.5.29-1.07.43-1.7.43-.81,0-1.47-.23-2-.69-.53-.46-.79-1.11-.79-1.94,0-1.09.42-1.88,1.27-2.36.46-.27,1.14-.45,2.04-.57l.79-.1ZM154.24,383.25c-.15.09-.3.17-.45.22-.15.06-.36.11-.62.16l-.53.1c-.49.09-.85.19-1.06.32-.36.21-.55.54-.55.98,0,.39.11.68.33.86.22.18.49.26.81.26.51,0,.97-.15,1.4-.44.43-.29.65-.83.66-1.6v-.86ZM165.7,379.21c.58.48.87,1.27.87,2.38v5.96h-2.37v-5.38c0-.47-.06-.82-.18-1.07-.23-.45-.66-.68-1.29-.68-.78,0-1.31.33-1.6,1-.15.35-.23.8-.23,1.35v4.79h-2.31v-8.83h2.24v1.29c.3-.45.58-.78.84-.98.47-.36,1.07-.54,1.8-.54.91,0,1.66.24,2.23.72ZM173.41,378.85c.42.24.76.56,1.01.98v-4.33h2.35v12.05h-2.25v-1.23c-.33.52-.71.91-1.13,1.14-.42.24-.95.36-1.58.36-1.03,0-1.9-.42-2.61-1.25-.71-.84-1.06-1.91-1.06-3.22,0-1.51.35-2.7,1.04-3.56.7-.87,1.62-1.3,2.79-1.3.54,0,1.01.12,1.43.35ZM173.98,385.15c.34-.49.51-1.12.51-1.89,0-1.08-.27-1.86-.82-2.32-.34-.28-.72-.42-1.17-.42-.68,0-1.17.26-1.49.77-.32.51-.47,1.15-.47,1.9,0,.82.16,1.47.48,1.96.32.49.81.73,1.47.73s1.15-.24,1.49-.73ZM181.25,377.65h-2.35v-2.15h2.35v2.15ZM178.91,378.71h2.35v8.85h-2.35v-8.85ZM190.63,379.21c.58.48.87,1.27.87,2.38v5.96h-2.37v-5.38c0-.47-.06-.82-.18-1.07-.23-.45-.66-.68-1.29-.68-.78,0-1.31.33-1.6,1-.15.35-.23.8-.23,1.35v4.79h-2.31v-8.83h2.24v1.29c.3-.45.58-.78.84-.98.47-.36,1.07-.54,1.8-.54.91,0,1.66.24,2.23.72ZM197.86,378.7c.56.23,1.02.66,1.36,1.28v-1.27h2.26v8.39c0,1.14-.19,2-.58,2.58-.66,1-1.93,1.49-3.8,1.49-1.13,0-2.05-.22-2.77-.67-.71-.44-1.11-1.11-1.19-1.99h2.52c.06.27.17.47.32.58.25.21.67.32,1.26.32.83,0,1.39-.28,1.67-.84.18-.36.28-.96.28-1.8v-.57c-.22.38-.46.66-.71.85-.46.35-1.06.53-1.79.53-1.14,0-2.04-.4-2.72-1.2-.68-.8-1.02-1.88-1.02-3.24s.33-2.42.98-3.32c.65-.9,1.58-1.34,2.78-1.34.44,0,.83.07,1.16.2ZM198.64,385.04c.37-.41.56-1.06.56-1.95,0-.84-.18-1.48-.53-1.92-.35-.44-.83-.66-1.42-.66-.81,0-1.37.38-1.67,1.14-.16.41-.24.91-.24,1.5,0,.51.09.97.26,1.37.31.75.87,1.12,1.68,1.12.54,0,.99-.2,1.37-.61ZM215.69,379.66c.72.76,1.08,1.88,1.08,3.36,0,1.56-.35,2.75-1.06,3.56-.71.82-1.61,1.23-2.72,1.23-.71,0-1.3-.18-1.76-.53-.26-.19-.51-.48-.75-.85v4.61h-2.29v-12.33h2.22v1.31c.25-.38.52-.69.8-.91.52-.39,1.13-.59,1.85-.59,1.04,0,1.92.38,2.64,1.14ZM213.92,381.32c-.31-.52-.82-.79-1.53-.79-.85,0-1.43.4-1.75,1.19-.16.42-.25.96-.25,1.61,0,1.03.28,1.75.83,2.17.33.24.72.37,1.16.37.65,0,1.15-.25,1.49-.75.34-.5.51-1.16.51-1.99,0-.68-.16-1.29-.47-1.81ZM221.74,382.17c.43-.05.74-.12.92-.2.33-.14.5-.36.5-.66,0-.36-.13-.61-.38-.75-.25-.14-.63-.21-1.12-.21-.55,0-.95.14-1.18.41-.16.2-.27.47-.33.81h-2.23c.05-.77.27-1.41.65-1.91.61-.78,1.67-1.17,3.16-1.17.97,0,1.84.19,2.59.58.76.38,1.13,1.11,1.13,2.18v4.06c0,.28,0,.62.02,1.02.02.3.06.51.14.62.08.11.19.2.34.27v.34h-2.52c-.07-.18-.12-.35-.15-.5s-.05-.34-.06-.54c-.32.35-.69.64-1.11.88-.5.29-1.07.43-1.7.43-.81,0-1.47-.23-2-.69-.53-.46-.79-1.11-.79-1.94,0-1.09.42-1.88,1.27-2.36.46-.27,1.14-.45,2.04-.57l.79-.1ZM223.16,383.25c-.15.09-.3.17-.45.22-.15.06-.36.11-.62.16l-.53.1c-.49.09-.85.19-1.06.32-.36.21-.55.54-.55.98,0,.39.11.68.33.86s.49.26.81.26c.51,0,.97-.15,1.4-.44.43-.29.65-.83.66-1.6v-.86ZM232.4,378.5s.1,0,.2.01v2.37c-.15-.02-.28-.03-.39-.03-.11,0-.21,0-.28,0-.93,0-1.56.3-1.88.91-.18.34-.27.87-.27,1.57v4.23h-2.33v-8.85h2.21v1.54c.36-.59.67-.99.93-1.21.43-.36,1-.54,1.69-.54.04,0,.08,0,.11,0ZM233.76,375.5h2.27v6.58l2.92-3.34h2.88l-3.17,3.3,3.29,5.51h-2.82l-2.14-3.78-.96,1v2.78h-2.27v-12.05Z"/>
    <path class="cls-2" d="M167.97,0c15.07-.03,29.7.07,40.69,4.54,2.16.88,4.22,1.58,6.08,2.74,5.15,3.22,9.9,8.41,13.56,13.23,1.96,2.59,4.26,4.78,5.99,7.65,1.25,2.07,2.12,4.54,3.34,6.7,2.3,4.08,4.6,8.13,6.08,13.07,1.6,5.32,2.48,11.2,3.68,16.96.3,1.88.6,3.77.9,5.65.84,4.26,1.26,8.67,2.03,13.04.17,1.54.33,3.07.5,4.61.25,1.57.13,3.23.37,4.93.15,1.01.15,2.39,0,3.37-.01.6-.02,1.2-.03,1.8-.07.83-.15,1.66-.22,2.48-.62,3.51-.88,7.1-1.5,10.68-.39,2.29-.39,4.59-.84,6.76-.91,4.4-2,8.29-2.93,12.74-.37,2.12-.75,4.25-1.12,6.37-1.07,4.47-2.08,8.89-3.3,13.2-.78,2.75-1.3,5.45-2.24,7.97-1.01,2.69-2.39,5.11-3.46,7.65-1.82,4.3-3.92,8.49-6.39,12.12-2.52,3.7-5.65,6.77-8.32,10.29-1.26,1.55-2.52,3.09-3.77,4.64-1.06,1.39-2.23,2.87-3.55,3.99-.73.74-1.46,1.48-2.18,2.22-1.98,1.67-4.01,3.31-6.11,4.87-2.5,1.85-5.3,3.18-8.01,4.84-5.9,3.6-12.48,6.21-19.14,8.99-3.93,1.64-7.83,3.45-12.22,4.61-2.32.61-4.74.71-7.2,1.27-2.55.58-5.2,1.11-7.83,1.63-2.31.34-4.61.68-6.92,1.01-1.63.37-3.18.7-4.71,1.18-2.81.88-6.16,1.92-9.85,1.08-2.92-.66-6.05-1.12-8.67-2.19-4.8-1.96-8.66-4.85-12-8.33-2.13-2.22-4.13-4.55-5.33-7.74-1.15-3.08-1.65-6.88-2.31-10.39-.11-1.09-.23-2.18-.34-3.27-.26-1.62.01-3.46-.25-5.16-.18-2.11-.35-4.23-.53-6.34-.03-.77-.06-1.55-.09-2.32-.18-1.2-.25-3.79-.06-5.06v-1.8c.1-2.22.21-4.44.31-6.67.23-1.54,0-3.19.25-4.84.15-1.04.12-2.54-.03-3.56-.03-1.02-.06-2.05-.09-3.07-.01-.98-.02-1.96-.03-2.94-.03-.72-.06-1.44-.09-2.16-.22-1.45-.22-2.98-.47-4.31-.49-2.59-.58-5.37-1.65-7.35-4.5-8.27-15.03-7.54-25.6-9.28-1.08-.18-2.56-.06-3.52.1-.74.02-1.48.04-2.21.07-.53.02-1.06.04-1.59.07-.98-.1-1.95-.2-2.93-.29-1.73-.35-3.45-.7-5.18-1.05-2.32-.48-4.58-.65-6.67-1.34-4.03-1.32-7.87-4.68-9.1-8.89-1.69-5.74,3.45-9.34,6.45-11.21,3.14-1.95,6.58-3.76,10.1-5.23,3.07-1.28,6.33-2.24,9.32-3.59,5.28-2.38,10.31-5.43,14.59-8.92,3.89-3.17,6.54-7.49,9.2-11.96,2.13-3.59,4.21-7.33,5.86-11.4,1.47-3.63,2.63-7.44,4.12-11.01,2.56-6.17,5.57-12.02,8.73-17.55,1.79-3.13,3.46-6.26,5.43-9.18,1.71-2.54,3.62-4.91,5.46-7.32.63-.7,1.27-1.39,1.9-2.09,1.84-2.39,4.34-4.43,6.67-6.31,4.02-3.23,8.17-6.74,13.06-8.99,2.08-.96,4.47-1.57,6.77-2.29,4.18-1.31,8.66-1.96,13.22-2.91,2-.27,3.99-.54,5.99-.82Z"/>
  </g>
</svg>