<?xml version="1.0" encoding="UTF-8"?>
<svg id="Layer_2" data-name="Layer 2" xmlns="http://www.w3.org/2000/svg" viewBox="0 0 401.46 144.06">
  <defs>
    <style>
      .cls-1 {
        fill: #000;
        stroke: #000;
        stroke-linecap: round;
        stroke-linejoin: round;
        stroke-width: 1.46px;
      }
    </style>
  </defs>
  <g id="_レイヤー_1" data-name="レイヤー 1">
    <g>
      <path class="cls-1" d="M22.36,143.34c-6.83,0-12.29-2.67-16.39-8-4.1-5.33-5.79-11.97-5.08-19.92,1.34-14.98,8.25-28.82,20.76-41.53,12.51-12.71,25.47-19.07,38.88-19.07,7.25,0,13,2.6,17.24,7.8,4.23,5.19,5.99,11.83,5.28,19.89-1.38,15.55-8.32,29.57-20.81,42.07-12.49,12.51-25.78,18.76-39.88,18.76ZM33.52,134.67c6.47,0,12.54-4.71,18.19-14.12,5.66-9.4,8.96-20.33,9.95-32.78,1.28-16.35-2.49-24.52-11.32-24.52-6.26,0-12.27,4.85-18.03,14.56-5.77,9.71-9.12,20.63-10.08,32.78-1.25,16.05,2.51,24.08,11.3,24.08Z"/>
      <path class="cls-1" d="M339.89,142.92c-6.83,0-12.3-2.66-16.4-7.99-4.09-5.33-5.79-11.97-5.08-19.93,1.33-14.97,8.25-28.82,20.76-41.52,12.51-12.71,25.46-19.07,38.88-19.07,7.26,0,13.01,2.6,17.24,7.8,4.24,5.2,6,11.82,5.28,19.88-1.38,15.54-8.32,29.56-20.81,42.07-12.49,12.51-25.77,18.76-39.87,18.76ZM351.06,134.26c6.46,0,12.53-4.71,18.19-14.12,5.65-9.41,8.97-20.33,9.94-32.78,1.28-16.35-2.49-24.53-11.32-24.53-6.25,0-12.26,4.86-18.02,14.56-5.77,9.71-9.12,20.63-10.08,32.78-1.25,16.05,2.51,24.08,11.3,24.08Z"/>
      <path class="cls-1" d="M188.5,128.22s-7.69,5.01-12.85,5.06c-2.58.04-4.47-1.69-4.17-5.07.11-1.15.59-3.39,1.47-6.66.34-1.19.74-2.49,1.17-3.92l10.3-38.06c1.36-4.42,2.2-8.16,2.52-11.23,1.01-9.46-2.77-14.2-11.33-14.2-7.1,0-15.19,4.05-24.27,12.13-9.08,8.08-19.14,18.78-27.07,32.09,0,0,8.81-29.87,9.09-32.53.83-7.79-3.88-11.7-11.4-11.7-10.52,0-16.85,12.29-16.85,12.29,4.75-3.42,6.05-3.86,8.85-3.86,3.08,0,4.45,1.61,4.11,4.84-.2,1.82-21.45,74.15-21.45,74.15h14.91l8.32-29.03c21.03-31.45,32.16-42.28,42.14-42.28,4.81,0,3.69,5.98,2.76,8.96l-10.54,38.23c-1.91,6.23-3.01,10.65-3.29,13.24-.83,7.84,5.7,12.58,13.18,11.98,5.94-.49,10.01-2.16,13.48-4.52,5.85-3.54,10.09-8.61,10.93-9.93Z"/>
      <path class="cls-1" d="M282.74,129.37c.15-1.66,1.09-5.51,2.83-11.54L318.24.73s-16.45,11.21-34.69,11.21c0,.7-.1,2-.1,2,6.24,0,3.79.03,6.14.03h2.67c2.07.18,2.68,2.78,2.22,4.57h0c-1.98,7.32-6.05,22.26-9.88,36.49-.09.2-.13.31-.13.31-10.9,0-19.28.79-25.12,2.38-5.84,1.58-11.78,4.69-17.81,9.31-9,6.97-16.52,15.57-22.57,25.82-6.04,10.24-9.35,20.04-9.94,29.4-.86,13.78,4.24,20.67,15.3,20.67,7.2,0,15.19-4.11,23.95-12.32,8.76-8.22,17.66-18.87,24.48-31.97l-5.24,19.26c-1.64,6.29-2.55,10.71-2.7,13.26-.49,7.85,3.54,11.58,11.1,11.77.52.01,1.14-.04,1.8-.15,10.62-1.04,20.76-11.42,22.03-13.39,0,0-7.68,5-12.85,5.06-2.58.03-4.47-1.69-4.17-5.07ZM254.26,115.26c-8.38,9.03-14.67,13.55-18.84,13.55-4.52,0-6.54-3.91-6.07-11.75.65-10.83,4.51-23.03,11.59-36.61,5.98-11.48,13.37-17.22,22.16-17.22,6.11,0,12.22,1.48,18.08,4.28l-4.6,16.85c-6.62,11.58-13.93,21.88-22.31,30.91Z"/>
    </g>
  </g>
</svg>