<?xml version="1.0" encoding="UTF-8"?>
<svg id="Layer_2" data-name="Layer 2" xmlns="http://www.w3.org/2000/svg" viewBox="0 0 548.25 66.03">
  <defs>
    <style>
      .cls-1 {
        stroke-width: 0px;
      }

      .cls-1, .cls-2, .cls-3 {
        fill: #000;
      }

      .cls-2 {
        stroke-miterlimit: 10;
        stroke-width: 1.2px;
      }

      .cls-2, .cls-3 {
        stroke: #000;
      }

      .cls-3 {
        stroke-linecap: round;
        stroke-linejoin: round;
        stroke-width: .61px;
      }
    </style>
  </defs>
  <g id="_レイヤー_1" data-name="レイヤー 1">
    <g>
      <g>
        <path class="cls-1" d="M1.59,40.41c.47,0,.86,0,1.16.01.3,0,.56.01.78.01s.43,0,.63.01c.2,0,.44.01.73.01.58,0,1.2-.01,1.84-.04.65-.03,1.2-.04,1.65-.04.8,0,1.56.06,2.29.19.72.13,1.36.35,1.9.67.54.32.96.75,1.26,1.32.3.56.41,1.28.33,2.14-.05.58-.21,1.11-.48,1.6-.27.49-.61.91-1.02,1.28-.41.36-.89.67-1.43.91-.54.24-1.1.4-1.69.47v.03c.56.04,1.15.14,1.78.33.63.18,1.2.45,1.73.81.52.36.94.83,1.25,1.4.31.57.43,1.26.36,2.08-.15,1.72-.82,2.99-2,3.8-1.18.81-2.82,1.22-4.93,1.22-.67,0-1.36-.02-2.07-.05-.71-.04-1.43-.05-2.18-.05-.33,0-.6,0-.82.01-.22,0-.45.01-.68.01s-.51,0-.82.01c-.31,0-.7.01-1.17.01v-.11c.28,0,.54-.02.79-.07.25-.05.48-.13.68-.26.2-.13.37-.3.51-.53.14-.23.22-.53.26-.91l1.26-14.41c.03-.38,0-.68-.1-.91-.1-.23-.24-.4-.42-.53-.18-.13-.39-.21-.63-.26-.24-.04-.5-.07-.77-.07v-.11ZM4.97,55.37c-.05.54-.05,1.01-.01,1.4.04.39.16.71.35.96.2.25.48.44.85.56.37.12.87.18,1.48.18s1.13-.13,1.6-.39c.47-.26.87-.61,1.22-1.03.35-.43.62-.91.82-1.44s.33-1.08.38-1.64c.15-1.67-.17-2.88-.93-3.65-.77-.77-1.84-1.15-3.22-1.15h-1.99l-.54,6.22ZM5.52,48.99h1.99c.64,0,1.18-.1,1.65-.31.46-.21.85-.5,1.17-.87.31-.37.56-.81.73-1.33.17-.52.29-1.08.34-1.7.04-.49.02-.98-.08-1.48-.09-.5-.27-.95-.54-1.36-.26-.41-.63-.74-1.1-1-.47-.26-1.06-.39-1.76-.39-.53,0-.94.07-1.24.2-.3.14-.47.41-.51.83l-.65,7.41Z"/>
        <path class="cls-1" d="M20.7,57.75c.07.2.18.35.33.46.14.11.32.18.53.2.21.03.43.04.66.04v.11c-.44,0-.79,0-1.06-.01-.26,0-.49-.02-.68-.03-.19,0-.37-.02-.53-.03-.16,0-.36-.01-.6-.01-.25,0-.46,0-.63.01-.17,0-.34.02-.53.03-.19,0-.42.02-.67.03-.26,0-.6.01-1.04.01v-.11c.24,0,.47-.01.68-.04.21-.03.4-.1.56-.2s.3-.26.41-.46c.11-.2.18-.48.21-.84l.68-7.74c.06-.71-.07-1.16-.39-1.36-.32-.2-.71-.3-1.19-.3v-.11c.65-.09,1.26-.22,1.83-.38s1.15-.37,1.76-.62c.07.4.12.86.14,1.4.02.53.01,1.04,0,1.51.48-.89,1.06-1.59,1.75-2.12.69-.53,1.45-.79,2.29-.79.22,0,.44.02.66.07.22.05.42.11.6.2s.31.22.42.38c.1.16.15.35.13.57-.03.31-.14.53-.35.68-.2.14-.42.22-.63.22-.27,0-.48-.08-.62-.23-.14-.16-.24-.33-.31-.51-.07-.18-.11-.36-.13-.52-.02-.17-.04-.26-.06-.28-.14-.11-.31-.17-.53-.17-.4,0-.78.12-1.15.37-.37.25-.7.54-.99.9-.29.35-.53.73-.71,1.14-.18.41-.29.78-.31,1.1l-.58,6.58c-.03.36-.01.64.06.84Z"/>
        <path class="cls-1" d="M33.27,46.68c-.22,0-.47.03-.74.08s-.54.13-.8.23c-.25.1-.47.22-.66.36-.19.14-.28.29-.3.45,0,.04.02.13.06.29.04.15.05.36.03.62-.02.2-.1.42-.25.64-.15.23-.39.34-.74.34-.22,0-.42-.07-.59-.22-.18-.14-.25-.41-.22-.79.03-.4.23-.74.59-1.02.36-.28.79-.51,1.3-.68s1.02-.29,1.56-.37c.53-.07.99-.11,1.37-.11.62,0,1.19.06,1.73.18.54.12.99.32,1.36.61s.65.68.84,1.17c.18.49.24,1.11.18,1.85l-.52,5.96c-.01.15-.02.32-.03.53,0,.21,0,.41.04.6.04.19.11.35.23.49.12.14.28.2.5.2.25,0,.48-.11.67-.32.19-.22.34-.4.44-.55l.1.05c-.04.09-.13.22-.25.39-.12.17-.29.34-.48.52-.2.17-.43.33-.69.46-.27.14-.56.2-.89.2-.62,0-1.07-.17-1.36-.52-.29-.34-.46-.76-.5-1.25-.68.53-1.38.95-2.1,1.28-.72.33-1.51.49-2.36.49-.4,0-.77-.05-1.1-.16-.33-.11-.62-.28-.87-.5-.24-.23-.43-.51-.55-.86-.12-.34-.17-.75-.12-1.22.05-.6.25-1.09.58-1.48.33-.39.68-.69,1.05-.91.58-.36,1.22-.68,1.94-.96.71-.28,1.43-.57,2.15-.88.21-.09.42-.19.65-.28.23-.1.43-.19.61-.29.18-.09.33-.18.44-.26.12-.08.18-.17.19-.26l.08-.88c.02-.25.03-.57.01-.94-.01-.37-.1-.73-.26-1.07-.16-.34-.42-.63-.78-.87-.36-.25-.87-.37-1.52-.37ZM35.71,51.21c-.55.27-1.15.55-1.79.83-.64.28-1.2.58-1.68.89-.56.36-.98.81-1.28,1.35s-.46,1.04-.5,1.51c-.02.27-.01.54.02.82.04.27.13.52.28.74.14.22.34.4.58.55.24.15.55.22.93.22.64,0,1.2-.11,1.68-.33.48-.22.9-.5,1.26-.85l.5-5.72Z"/>
        <path class="cls-1" d="M43.22,48.24c-.07-.21-.18-.37-.33-.47-.14-.11-.32-.18-.53-.2-.21-.03-.43-.04-.66-.04v-.11c.65-.09,1.25-.22,1.79-.38.54-.16,1.11-.37,1.72-.62.05.45.09.92.11,1.4.02.48.03.87.02,1.18.48-.76,1.13-1.36,1.93-1.8.8-.44,1.66-.67,2.56-.67s1.66.16,2.15.49c.49.33.84.72,1.04,1.19.2.47.31.96.31,1.48,0,.52-.02.97-.05,1.37l-.51,5.86c-.03.36-.01.64.06.84.07.2.18.35.33.46.14.11.32.18.53.2.21.03.43.04.66.04v.11c-.39,0-.7,0-.95-.01-.24,0-.46-.02-.65-.03-.19,0-.38-.02-.56-.03-.18,0-.39-.01-.63-.01-.25,0-.48,0-.67.01-.19,0-.39.02-.59.03-.2,0-.43.02-.68.03-.25,0-.56.01-.93.01v-.11c.24,0,.47-.01.68-.04.21-.03.4-.1.56-.2.16-.11.3-.26.41-.46.11-.2.18-.48.21-.84l.55-6.34c.02-.22.03-.53.04-.94,0-.41-.05-.81-.17-1.22-.12-.41-.34-.76-.66-1.06-.32-.3-.8-.45-1.43-.45-.38,0-.77.08-1.17.24-.4.16-.76.39-1.1.69-.34.3-.62.66-.84,1.07-.23.42-.36.87-.4,1.35l-.58,6.63c-.03.36-.01.64.06.84.07.2.18.35.33.46.14.11.32.18.53.2.21.03.43.04.66.04v.11c-.39,0-.7,0-.95-.01-.24,0-.47-.02-.68-.03-.21,0-.41-.02-.6-.03-.19,0-.4-.01-.64-.01-.25,0-.47,0-.66.01-.18,0-.37.02-.56.03-.19,0-.41.02-.66.03-.25,0-.55.01-.91.01v-.11c.24,0,.47-.01.68-.04.21-.03.4-.1.56-.2s.3-.26.41-.46c.11-.2.18-.48.21-.84l.69-7.84c.03-.34,0-.62-.06-.83Z"/>
        <path class="cls-1" d="M66.79,42.58c.03-.34,0-.62-.06-.83-.07-.21-.19-.37-.34-.48-.15-.11-.34-.18-.55-.2-.22-.03-.46-.04-.73-.04v-.11c.69-.05,1.37-.17,2.06-.34.69-.17,1.38-.38,2.07-.61l-1.36,15.58c-.08.89.04,1.48.35,1.79.31.31.77.46,1.39.46v.11c-.49.09-1.04.22-1.65.39-.62.17-1.2.34-1.76.5-.07-.24-.13-.52-.18-.87-.05-.34-.1-.71-.13-1.11-.46.53-1.01,1-1.65,1.43-.64.42-1.43.64-2.37.64s-1.7-.17-2.38-.52c-.68-.34-1.24-.81-1.68-1.38-.44-.58-.75-1.25-.94-2.02-.19-.77-.24-1.58-.17-2.43.07-.78.27-1.53.62-2.25.35-.72.8-1.36,1.35-1.9.56-.54,1.21-.98,1.95-1.3.75-.33,1.56-.49,2.46-.49.8,0,1.46.17,1.97.52.51.34.94.72,1.26,1.11l.49-5.65ZM59.23,52.67c-.04.43-.04.99,0,1.67.03.68.15,1.33.35,1.96.2.63.52,1.17.95,1.62s1.03.68,1.79.68c.87,0,1.63-.31,2.28-.94.64-.62,1.03-1.62,1.15-2.98l.45-5.14c.03-.29-.02-.6-.12-.93-.11-.33-.28-.62-.52-.9-.24-.27-.55-.5-.92-.68s-.83-.27-1.35-.27c-.64,0-1.19.18-1.65.53-.47.35-.87.82-1.21,1.39-.34.57-.61,1.21-.79,1.9-.19.7-.31,1.39-.37,2.08Z"/>
        <path class="cls-1" d="M73.71,49.1c.03-.34,0-.62-.06-.83-.07-.21-.18-.37-.33-.47-.15-.11-.32-.18-.53-.21-.21-.03-.43-.04-.66-.04v-.11c.69-.07,1.35-.19,2-.34.65-.15,1.32-.36,2.02-.61l-.91,10.42c-.03.36-.01.64.06.84.07.2.18.35.33.46s.32.18.53.2c.21.03.43.04.66.04v.11c-.39,0-.7,0-.95-.01-.24,0-.46-.02-.65-.03-.19,0-.38-.02-.57-.03-.19,0-.4-.01-.64-.01-.25,0-.48,0-.67.01-.19,0-.39.02-.59.03-.2,0-.42.02-.67.03-.25,0-.55.01-.91.01v-.11c.25,0,.47-.01.68-.04.21-.03.4-.1.56-.2.16-.11.3-.26.41-.46.11-.2.18-.48.21-.84l.68-7.82ZM75.16,40.98c.42,0,.76.14,1.01.42.26.28.37.63.33,1.04-.04.4-.21.74-.51,1.02-.31.28-.67.42-1.09.42s-.73-.14-.98-.42c-.26-.28-.37-.62-.33-1.02.04-.42.21-.76.51-1.04.31-.28.66-.42,1.06-.42Z"/>
        <path class="cls-1" d="M81.17,48.24c-.07-.21-.18-.37-.33-.47-.14-.11-.32-.18-.53-.2-.21-.03-.43-.04-.66-.04v-.11c.65-.09,1.25-.22,1.79-.38.54-.16,1.11-.37,1.72-.62.05.45.09.92.11,1.4.02.48.03.87.02,1.18.48-.76,1.13-1.36,1.93-1.8.8-.44,1.66-.67,2.56-.67s1.66.16,2.15.49c.49.33.84.72,1.04,1.19.2.47.31.96.31,1.48,0,.52-.02.97-.05,1.37l-.51,5.86c-.03.36-.01.64.06.84.07.2.18.35.33.46.14.11.32.18.53.2.21.03.43.04.66.04v.11c-.39,0-.7,0-.95-.01-.24,0-.46-.02-.65-.03-.19,0-.38-.02-.56-.03-.18,0-.39-.01-.63-.01-.25,0-.48,0-.67.01-.19,0-.39.02-.59.03-.2,0-.43.02-.68.03-.25,0-.56.01-.93.01v-.11c.24,0,.47-.01.68-.04.21-.03.4-.1.56-.2.16-.11.3-.26.41-.46.11-.2.18-.48.21-.84l.55-6.34c.02-.22.03-.53.04-.94,0-.41-.05-.81-.17-1.22-.12-.41-.34-.76-.66-1.06-.32-.3-.8-.45-1.43-.45-.38,0-.77.08-1.17.24-.4.16-.76.39-1.1.69-.34.3-.62.66-.84,1.07-.23.42-.36.87-.4,1.35l-.58,6.63c-.03.36-.01.64.06.84.07.2.18.35.33.46.14.11.32.18.53.2.21.03.43.04.66.04v.11c-.39,0-.7,0-.95-.01-.24,0-.47-.02-.68-.03-.21,0-.41-.02-.6-.03-.19,0-.4-.01-.64-.01-.25,0-.47,0-.66.01-.18,0-.37.02-.56.03-.19,0-.41.02-.66.03-.25,0-.55.01-.91.01v-.11c.24,0,.47-.01.68-.04.21-.03.4-.1.56-.2s.3-.26.41-.46c.11-.2.18-.48.21-.84l.69-7.84c.03-.34,0-.62-.06-.83Z"/>
        <path class="cls-1" d="M104.1,48.04c.38.45.62.93.73,1.42.11.5.15.97.11,1.43-.04.4-.13.82-.27,1.28-.15.45-.41.88-.78,1.28-.37.4-.87.74-1.51,1.02-.63.28-1.44.45-2.43.5-.2.02-.5.02-.9.01-.4,0-.8.02-1.21.09-.41.07-.76.19-1.07.37s-.47.44-.51.8c-.03.32.1.57.4.73.29.16.67.28,1.13.34.46.06.96.09,1.5.09s1.06,0,1.55.03c.69.04,1.33.11,1.94.23.61.12,1.13.33,1.58.62.45.3.79.7,1.03,1.19.24.5.32,1.13.26,1.89-.06.69-.26,1.32-.6,1.89-.34.57-.79,1.06-1.35,1.46-.56.41-1.22.73-1.98.96-.76.23-1.57.35-2.44.35-1.2,0-2.16-.13-2.9-.39-.73-.26-1.29-.58-1.69-.96-.39-.38-.64-.79-.75-1.24-.11-.44-.14-.85-.11-1.21.03-.29.1-.57.24-.83.13-.26.3-.49.51-.68.21-.19.44-.34.69-.46.25-.12.52-.18.79-.18.31,0,.55.05.71.16.16.11.28.22.37.32-.49.14-.87.39-1.17.74-.29.35-.47.82-.52,1.39-.02.25,0,.56.05.92.06.36.22.71.48,1.04.26.33.66.62,1.18.85.52.23,1.24.35,2.15.35.76,0,1.43-.1,2.01-.3.58-.2,1.07-.46,1.47-.77s.71-.68.93-1.09.35-.84.38-1.27c.06-.67-.05-1.19-.31-1.57-.27-.38-.64-.66-1.12-.85-.48-.19-1.05-.31-1.7-.35-.65-.05-1.33-.08-2.04-.09-.38-.02-.8-.05-1.27-.09-.47-.05-.9-.15-1.29-.31s-.72-.39-.96-.68c-.25-.29-.35-.69-.3-1.19.06-.63.36-1.18.91-1.63.55-.45,1.26-.71,2.14-.79-.43-.11-.82-.27-1.18-.48-.36-.21-.68-.48-.95-.81-.27-.33-.47-.72-.61-1.17-.13-.44-.17-.96-.12-1.53.05-.56.21-1.1.48-1.63.27-.52.63-.99,1.09-1.38.45-.4.99-.71,1.61-.95s1.31-.35,2.07-.35c.49,0,.93.05,1.31.15.38.1.72.22,1,.37.29.15.52.29.7.44.18.14.32.27.42.38.33-.25.73-.52,1.19-.81.46-.29.95-.43,1.46-.43.36,0,.7.09,1,.27.3.18.44.47.4.87-.02.25-.12.46-.3.61-.18.16-.37.23-.56.23-.25,0-.45-.06-.6-.19-.14-.13-.26-.27-.35-.42-.09-.15-.15-.29-.19-.42-.04-.13-.07-.2-.09-.22-.08-.07-.2-.11-.34-.11-.25,0-.51.08-.77.25-.26.16-.5.33-.71.52ZM97.56,50.91c-.07.81-.04,1.47.09,1.97.13.5.31.9.55,1.19.24.29.5.48.78.58.28.1.55.15.8.15.27,0,.57-.06.89-.19.32-.12.62-.34.89-.63.27-.3.51-.7.72-1.2.21-.5.34-1.12.41-1.86.07-.81.04-1.48-.08-2.02-.13-.54-.3-.97-.53-1.29-.22-.32-.48-.55-.76-.67-.28-.12-.55-.19-.8-.19-.44,0-.83.12-1.18.36-.35.24-.64.56-.89.96-.25.4-.44.84-.6,1.35-.15.5-.25,1.01-.3,1.51Z"/>
        <path class="cls-1" d="M118.26,42.58c.03-.34,0-.62-.06-.83-.07-.21-.19-.37-.34-.48-.15-.11-.34-.18-.55-.2s-.46-.04-.73-.04v-.11c.69-.05,1.38-.16,2.08-.33.7-.16,1.39-.37,2.04-.62l-.7,8.01c.38-.36.85-.68,1.42-.96.57-.28,1.29-.42,2.16-.42s1.64.15,2.32.45c.67.3,1.23.71,1.68,1.24.44.52.77,1.15.97,1.87.2.72.26,1.5.19,2.33-.08.87-.27,1.69-.58,2.47-.31.78-.74,1.46-1.28,2.05-.54.59-1.2,1.05-1.97,1.4s-1.66.52-2.66.52c-.84,0-1.54-.16-2.11-.49-.57-.33-1.07-.75-1.5-1.28l-1.64,1.57h-.14l1.41-16.15ZM126.2,52.73c.06-.69.05-1.4-.02-2.11-.07-.71-.24-1.36-.49-1.93-.25-.58-.58-1.04-1.01-1.4-.42-.36-.95-.54-1.59-.54-.53,0-.99.09-1.38.26-.4.17-.73.38-.99.63-.27.25-.47.52-.6.82-.14.3-.21.57-.23.81l-.54,6.16c-.06.68-.02,1.23.13,1.66.14.43.35.77.61,1.01.26.25.55.42.88.51.33.09.66.14.98.14.73,0,1.35-.19,1.86-.58.51-.38.94-.87,1.29-1.46.34-.59.6-1.24.77-1.95.17-.7.28-1.38.34-2.04Z"/>
        <path class="cls-1" d="M135.32,58.41l-3.1-9.09c-.12-.34-.23-.67-.34-.96-.11-.3-.23-.55-.36-.76-.13-.21-.28-.37-.46-.49-.18-.12-.41-.18-.68-.18v-.11c.41,0,.73,0,.97.01.24,0,.46.02.64.03.18,0,.35.02.51.03.16,0,.35.01.57.01.24,0,.44,0,.6-.01s.34-.02.52-.03c.18,0,.39-.02.63-.03.24,0,.55-.01.93-.01v.11c-.34,0-.66.06-.98.18-.32.12-.5.4-.54.86-.02.2,0,.42.08.65l2.37,7.16,3.57-6.84c.15-.31.24-.58.26-.81.04-.42-.07-.71-.33-.89s-.58-.28-.98-.3v-.11c.28,0,.5,0,.66.01.16,0,.31.01.44.01s.25,0,.37.01c.12,0,.25.01.39.01s.27,0,.37-.01c.1,0,.2-.01.29-.01s.2,0,.31-.01c.12,0,.27-.01.45-.01v.11c-.5.02-.89.21-1.16.57-.28.36-.58.86-.91,1.49l-7.36,14.09c-.11.22-.26.48-.44.8-.18.32-.38.62-.58.91s-.42.54-.65.75c-.23.21-.45.31-.67.31-.13,0-.25-.04-.37-.12-.12-.08-.17-.22-.15-.42.03-.31.2-.53.53-.66.33-.14.68-.25,1.05-.34.09-.04.24-.14.44-.3.2-.16.43-.51.72-1.03l2.39-4.56Z"/>
      </g>
      <g>
        <path class="cls-3" d="M171.02,59.68c-2.85,0-5.12-1.11-6.82-3.33-1.71-2.22-2.41-4.99-2.12-8.29.56-6.24,3.44-12,8.64-17.29,5.21-5.29,10.61-7.94,16.19-7.94,3.02,0,5.41,1.08,7.18,3.25,1.76,2.16,2.49,4.93,2.2,8.28-.58,6.47-3.46,12.31-8.66,17.52-5.2,5.21-10.73,7.81-16.6,7.81ZM175.67,56.07c2.7,0,5.22-1.96,7.57-5.88,2.35-3.91,3.73-8.47,4.14-13.65.53-6.81-1.04-10.21-4.71-10.21-2.61,0-5.11,2.02-7.51,6.06-2.4,4.04-3.8,8.59-4.2,13.65-.52,6.68,1.05,10.03,4.7,10.03Z"/>
        <path class="cls-3" d="M303.23,59.5c-2.85,0-5.12-1.11-6.83-3.33-1.7-2.22-2.41-4.99-2.11-8.3.55-6.23,3.44-12,8.64-17.29,5.21-5.29,10.6-7.94,16.19-7.94,3.02,0,5.42,1.08,7.18,3.25,1.76,2.16,2.5,4.92,2.2,8.28-.58,6.47-3.46,12.31-8.66,17.52-5.2,5.21-10.73,7.81-16.6,7.81ZM307.88,55.9c2.69,0,5.22-1.96,7.57-5.88,2.35-3.92,3.73-8.47,4.14-13.65.53-6.81-1.04-10.21-4.71-10.21-2.6,0-5.1,2.02-7.5,6.06-2.4,4.04-3.8,8.59-4.2,13.65-.52,6.68,1.04,10.03,4.7,10.03Z"/>
        <path class="cls-3" d="M240.19,53.38s-3.2,2.08-5.35,2.11c-1.07.01-1.86-.7-1.74-2.11.04-.48.25-1.41.61-2.77.14-.5.31-1.04.49-1.63l4.29-15.85c.57-1.84.92-3.4,1.05-4.68.42-3.94-1.15-5.91-4.72-5.91-2.95,0-6.33,1.69-10.11,5.05-3.78,3.37-7.97,7.82-11.27,13.36,0,0,3.67-12.44,3.78-13.54.34-3.24-1.62-4.87-4.75-4.87-4.38,0-7.01,5.12-7.01,5.12,1.98-1.42,2.52-1.61,3.68-1.61,1.28,0,1.85.67,1.71,2.01-.08.76-8.93,30.87-8.93,30.87h6.21l3.46-12.09c8.76-13.1,13.39-17.6,17.54-17.6,2,0,1.54,2.49,1.15,3.73l-4.39,15.92c-.8,2.6-1.25,4.44-1.37,5.51-.35,3.27,2.37,5.24,5.49,4.99,2.47-.2,4.17-.9,5.61-1.88,2.43-1.47,4.2-3.59,4.55-4.13Z"/>
        <path class="cls-3" d="M279.43,53.86c.06-.69.45-2.29,1.18-4.8L294.21.3s-6.85,4.67-14.45,4.67c0,.29-.04.83-.04.83,2.6,0,1.58.01,2.56.01h1.11c.86.07,1.12,1.16.92,1.9h0c-.83,3.05-2.52,9.27-4.11,15.19-.04.08-.05.13-.05.13-4.54,0-8.03.33-10.46.99-2.43.66-4.9,1.95-7.41,3.88-3.75,2.9-6.88,6.48-9.4,10.75-2.51,4.26-3.89,8.35-4.14,12.24-.36,5.74,1.77,8.6,6.37,8.6,3,0,6.32-1.71,9.97-5.13,3.65-3.42,7.35-7.86,10.19-13.31l-2.18,8.02c-.68,2.62-1.06,4.46-1.13,5.52-.21,3.27,1.47,4.82,4.62,4.9.22,0,.47-.02.75-.06,4.42-.43,8.64-4.76,9.17-5.58,0,0-3.2,2.08-5.35,2.11-1.07.01-1.86-.7-1.74-2.11ZM267.58,47.99c-3.49,3.76-6.11,5.64-7.85,5.64-1.88,0-2.72-1.63-2.53-4.89.27-4.51,1.88-9.59,4.82-15.24,2.49-4.78,5.57-7.17,9.23-7.17,2.55,0,5.09.62,7.53,1.78l-1.91,7.01c-2.76,4.82-5.8,9.11-9.29,12.87Z"/>
      </g>
      <g>
        <g>
          <path class="cls-1" d="M446.16,45.6v13.5h-5.7v-13.62c0-3.13-.37-4.52-.69-5.13-.45-.88-1.12-1.56-2.05-2.1-.94-.54-2.21-.82-3.52-.82-1.88,0-3.48.53-4.64,1.63-.58.56-.99,1.21-1.25,1.98-.19.56-.41,1.79-.41,4.44v13.62h-5.71v-13.54c0-2.32.15-4.04.46-5.27.3-1.21.69-2.24,1.14-3.07.46-.83,1.03-1.59,1.7-2.25,2.18-2.15,5.18-3.24,8.66-3.24s6.56,1.08,8.73,3.22c.67.68,1.24,1.44,1.7,2.27.46.83.84,1.84,1.13,3.01.29,1.18.44,2.93.44,5.37Z"/>
          <path class="cls-1" d="M547.82,40.24c-.29-1.17-.67-2.19-1.13-3.01-.46-.83-1.03-1.59-1.7-2.27-2.17-2.14-5.2-3.22-8.73-3.22s-6.48,1.09-8.66,3.24c-.67.66-1.24,1.42-1.7,2.25-.46.83-.84,1.86-1.14,3.07-.31,1.23-.46,2.95-.46,5.27v13.54h5.71v-13.62c0-2.66.22-3.88.41-4.44.26-.77.67-1.42,1.25-1.98,1.15-1.09,2.76-1.63,4.64-1.63,1.31,0,2.58.28,3.52.82.93.54,1.6,1.23,2.05,2.1.31.62.69,2.01.69,5.13v13.62h5.7v-13.5c0-2.43-.14-4.19-.44-5.37Z"/>
        </g>
        <path class="cls-1" d="M476.96,52.45c-1.78,1.29-3.81,1.75-5.67,1.75-2.61,0-4.03-1.46-4.03-4.72v-11.48h8.56v-5.13h-8.56v-6.1c0-.15-.18-.23-.29-.12l-9.81,9.49c-.13.11-.17.24-.17.39v1.48h4.56v10.78c0,2.49.11,4.18.34,5.07.23.89.51,1.61.85,2.15.34.55.77,1.04,1.29,1.48,1.66,1.46,3.84,2.18,6.33,2.18,2.34,0,4.52-.61,6.52-1.67.04-.02.06-.06.06-.1v-5.46Z"/>
        <path class="cls-1" d="M509.59,35.55c-2.2-2.54-5.14-3.82-8.84-3.82s-6.95,1.31-9.35,3.92c-2.4,2.61-3.6,5.86-3.6,10.04,0,7.34,4.56,13.99,13.71,13.99,5.28,0,8.53-1.37,8.53-1.37v-5.7c-2.27,1.37-5.04,1.97-7.68,1.97s-4.72-.77-6.37-2.32c-1.24-1.17-2.07-2.51-2.46-4.26h19.2s.09-.66.12-1.24c.02-.49.03-1.12.03-1.12,0-4.27-1.1-7.54-3.3-10.08ZM493.55,43.42c0-1.95,1.17-3.98,2.31-4.96,1.25-1.07,2.84-1.6,4.79-1.6s3.5.53,4.65,1.6c1.06.98,1.88,3.01,1.88,4.96h-13.64Z"/>
        <path class="cls-1" d="M410.22,45.69c0-4-1.37-7.33-4.12-9.98-2.75-2.65-6.2-3.98-10.35-3.98s-7.38,1.34-10.05,4.03c-2.62,2.64-3.95,5.96-3.99,9.94.05,3.98,1.38,7.3,3.99,9.94,2.67,2.69,6.02,4.03,10.05,4.03s7.61-1.33,10.35-3.98c2.75-2.65,4.12-5.98,4.12-9.98,0,0,0,0,0-.01s0,0,0-.01ZM402.06,51.79c-1.71,1.68-3.52,2.52-6.13,2.52s-4.44-.81-6.12-2.42c-1.68-1.61-2.28-3.67-2.29-6.18,0-2.51.61-4.57,2.29-6.18,1.68-1.61,3.49-2.42,6.12-2.42s4.42.84,6.13,2.52c1.65,1.62,2.28,3.65,2.33,6.08-.06,2.43-.68,4.46-2.33,6.08Z"/>
      </g>
      <line class="cls-2" x1="355.84" y1="18.91" x2="355.84" y2="60.71"/>
    </g>
  </g>
</svg>