<?xml version="1.0" encoding="UTF-8"?>
<svg id="Layer_2" data-name="Layer 2" xmlns="http://www.w3.org/2000/svg" viewBox="0 0 382.17 21.45">
  <defs>
    <style>
      .cls-1 {
        fill: #000;
        stroke-width: 0px;
      }
    </style>
  </defs>
  <g id="_レイヤー_1" data-name="レイヤー 1">
    <g>
      <path class="cls-1" d="M17.97,15.36c0,.54,0,1.14.02,1.79,0,.65.03,1.18.08,1.58-.7.06-1.35.22-1.94.48-.59.26-1.2.54-1.83.82-.63.29-1.32.55-2.06.78-.74.23-1.6.34-2.58.34-1.46,0-2.79-.25-3.97-.73-1.19-.49-2.21-1.19-3.04-2.08-.84-.9-1.49-1.98-1.95-3.23-.46-1.25-.69-2.63-.69-4.15s.26-2.9.78-4.2,1.25-2.42,2.18-3.36c.93-.94,2.02-1.68,3.28-2.22,1.26-.54,2.64-.81,4.14-.81,1.12,0,2.12.17,3,.5.88.33,1.76.79,2.64,1.37l1.02-1.38h.12c-.04.7-.09,1.28-.15,1.72-.06.45-.09.9-.09,1.33v.66c0,.18,0,.37.02.57,0,.2.01.43.01.69v.99h-.18c-.06-.9-.25-1.73-.56-2.5-.31-.77-.74-1.43-1.29-1.98-.55-.55-1.21-.99-1.98-1.31-.77-.32-1.65-.48-2.62-.48-.84,0-1.68.23-2.52.69-.84.46-1.6,1.14-2.27,2.03s-1.21,1.99-1.63,3.3c-.42,1.31-.63,2.82-.63,4.51,0,.94.1,1.98.3,3.12.2,1.14.54,2.22,1.04,3.23.49,1.01,1.16,1.86,2.01,2.54s1.92,1.02,3.23,1.02c.62,0,1.24-.09,1.86-.29.62-.19,1.18-.49,1.68-.9.5-.41.91-.94,1.23-1.59.32-.65.48-1.42.48-2.32,0-.98-.2-1.68-.6-2.1-.4-.42-1.14-.63-2.22-.63v-.12c.6,0,1.09,0,1.47.02s.71.03.99.04c.28.02.54.04.78.04.24,0,.53.01.87.01.32,0,.59,0,.83-.01.23,0,.48-.03.75-.04s.59-.04.96-.04c.37,0,.85-.02,1.46-.02v.12c-.86,0-1.48.15-1.85.44-.37.29-.56.88-.56,1.78Z"/>
      <path class="cls-1" d="M24.42,2.26c-.1-.23-.24-.41-.41-.52-.17-.12-.37-.2-.6-.23s-.48-.04-.73-.04v-.12c.74-.08,1.46-.21,2.16-.38.7-.17,1.42-.39,2.16-.67v18.63c0,.4.05.71.15.93.1.22.23.39.4.51s.37.19.6.22c.23.03.47.04.73.04v.12c-.42,0-.76,0-1.03-.01s-.52-.02-.75-.03c-.23,0-.45-.02-.66-.03-.21,0-.45-.01-.71-.01-.28,0-.52,0-.72.01-.2.01-.41.02-.62.03s-.45.02-.72.03-.6.01-1,.01v-.12c.26,0,.5-.01.73-.04s.43-.1.6-.22.3-.29.41-.51c.1-.22.15-.53.15-.93V3.18c0-.38-.05-.68-.15-.92Z"/>
      <path class="cls-1" d="M45.63,14.25c0,1-.17,1.92-.51,2.76-.34.84-.81,1.57-1.41,2.17-.6.61-1.32,1.09-2.16,1.44-.84.35-1.75.52-2.73.52s-1.92-.17-2.76-.52c-.84-.35-1.57-.83-2.19-1.44-.62-.61-1.11-1.33-1.46-2.17-.35-.84-.52-1.75-.52-2.73,0-1.04.17-1.98.52-2.82.35-.84.83-1.56,1.46-2.16.62-.6,1.35-1.06,2.2-1.38s1.77-.48,2.75-.48,1.83.16,2.66.48c.83.32,1.55.78,2.16,1.38.61.6,1.1,1.32,1.46,2.16s.54,1.77.54,2.79ZM38.82,7.62c-.72,0-1.34.19-1.86.57-.52.38-.95.88-1.29,1.49-.34.62-.6,1.33-.77,2.14-.17.81-.25,1.63-.25,2.46s.08,1.66.24,2.46c.16.81.41,1.52.76,2.15.35.63.78,1.13,1.31,1.51.52.38,1.14.57,1.86.57s1.34-.19,1.86-.58c.52-.39.94-.9,1.26-1.52.32-.63.56-1.34.71-2.15.15-.81.23-1.63.23-2.46s-.08-1.65-.24-2.45c-.16-.8-.4-1.5-.73-2.12s-.75-1.12-1.26-1.49c-.51-.38-1.11-.57-1.81-.57Z"/>
      <path class="cls-1" d="M50.04,3.09c0-.38-.05-.68-.15-.92-.1-.23-.24-.41-.42-.53-.18-.12-.39-.19-.63-.22-.24-.03-.51-.04-.81-.04v-.12c.74-.06,1.49-.18,2.25-.36.76-.18,1.49-.41,2.19-.69v8.85c.38-.4.87-.75,1.47-1.06.6-.31,1.38-.47,2.34-.47s1.83.17,2.6.5c.77.33,1.42.79,1.96,1.37s.96,1.27,1.25,2.07c.29.8.44,1.66.44,2.58s-.14,1.87-.41,2.73c-.27.86-.67,1.62-1.21,2.27-.54.65-1.22,1.17-2.04,1.54-.82.38-1.78.57-2.88.57-.92,0-1.71-.18-2.37-.54-.66-.36-1.25-.83-1.77-1.41l-1.65,1.74h-.15V3.09ZM59.76,14.31c0-.77-.07-1.54-.22-2.33-.15-.79-.39-1.5-.72-2.13s-.75-1.15-1.25-1.54c-.5-.39-1.1-.59-1.8-.59-.58,0-1.08.1-1.5.29-.42.19-.77.42-1.04.7-.27.27-.46.58-.58.91-.12.33-.18.63-.18.89v6.81c0,.75.1,1.36.3,1.83.2.47.45.85.77,1.12.31.27.65.46,1.02.56.37.1.73.15,1.09.15.8,0,1.46-.21,2-.64.53-.42.95-.96,1.27-1.62.32-.66.54-1.37.66-2.15.12-.78.18-1.53.18-2.25Z"/>
      <path class="cls-1" d="M70.62,7.62c-.24,0-.51.03-.81.09-.3.06-.58.15-.85.26-.27.11-.5.24-.69.39-.19.15-.29.32-.29.5,0,.04.03.15.09.32.06.17.09.4.09.68,0,.22-.07.46-.21.71-.14.25-.4.38-.78.38-.24,0-.46-.08-.67-.24s-.31-.45-.31-.87.18-.81.56-1.12c.37-.31.82-.56,1.36-.75.54-.19,1.1-.33,1.68-.41.58-.08,1.08-.12,1.5-.12.68,0,1.32.07,1.92.2.6.13,1.12.36,1.56.68.44.32.78.75,1.03,1.29.25.54.38,1.22.38,2.04v6.59c0,.16,0,.36.02.59,0,.23.04.45.1.66.06.21.16.39.3.54.14.15.33.23.57.23.28,0,.51-.12.71-.36.19-.24.33-.44.44-.6l.12.06c-.04.1-.12.25-.24.44-.12.19-.28.38-.48.57-.2.19-.44.36-.72.51-.28.15-.6.22-.96.22-.68,0-1.2-.19-1.54-.57-.35-.38-.58-.84-.67-1.38-.7.58-1.43,1.05-2.19,1.41-.76.36-1.61.54-2.55.54-.44,0-.85-.06-1.23-.18-.38-.12-.72-.3-1-.56-.29-.25-.52-.56-.69-.94-.17-.38-.26-.83-.26-1.35,0-.66.17-1.2.5-1.63.33-.43.69-.76,1.06-1,.6-.4,1.28-.75,2.04-1.07.76-.31,1.52-.63,2.28-.97.22-.1.45-.21.69-.32.24-.11.45-.21.65-.31.19-.1.34-.2.46-.29s.18-.19.18-.29v-.97c0-.28-.03-.63-.08-1.04-.05-.41-.18-.8-.39-1.18-.21-.37-.52-.69-.94-.97-.42-.27-.99-.41-1.71-.41ZM73.74,12.63c-.58.3-1.21.61-1.89.92-.68.31-1.27.64-1.77.98-.58.4-1,.9-1.27,1.49s-.41,1.15-.41,1.67c0,.3.03.6.1.9.07.3.2.57.38.81.18.24.41.44.69.6.28.16.63.24,1.05.24.7,0,1.31-.12,1.81-.36.51-.24.94-.55,1.31-.93v-6.33Z"/>
      <path class="cls-1" d="M82.26,2.26c-.1-.23-.24-.41-.41-.52-.17-.12-.37-.2-.6-.23s-.48-.04-.73-.04v-.12c.74-.08,1.46-.21,2.16-.38.7-.17,1.42-.39,2.16-.67v18.63c0,.4.05.71.15.93.1.22.23.39.4.51s.37.19.6.22c.23.03.47.04.73.04v.12c-.42,0-.76,0-1.03-.01s-.52-.02-.75-.03c-.23,0-.45-.02-.66-.03-.21,0-.45-.01-.71-.01-.28,0-.52,0-.72.01-.2.01-.41.02-.62.03s-.45.02-.72.03-.6.01-1,.01v-.12c.26,0,.5-.01.73-.04s.43-.1.6-.22.3-.29.41-.51c.1-.22.15-.53.15-.93V3.18c0-.38-.05-.68-.15-.92Z"/>
      <path class="cls-1" d="M110.19,21.24l-4.62-8.16h-1.98v8.16h-4.2V.3h7.86c1.62,0,3,.29,4.14.86,1.14.57,2,1.34,2.56,2.31.57.97.86,2.06.86,3.26,0,1.38-.4,2.62-1.2,3.73-.8,1.11-1.99,1.88-3.57,2.29l5.01,8.49h-4.86ZM103.59,9.93h3.51c1.14,0,1.99-.28,2.55-.83.56-.55.84-1.32.84-2.29s-.28-1.71-.84-2.24c-.56-.53-1.41-.79-2.55-.79h-3.51v6.15Z"/>
      <path class="cls-1" d="M124.32.3v20.94h-4.2V.3h4.2Z"/>
      <path class="cls-1" d="M134.14,20.7c-1.17-.5-2.1-1.22-2.77-2.16-.68-.94-1.03-2.05-1.05-3.33h4.5c.06.86.36,1.54.92,2.04.55.5,1.31.75,2.27.75s1.75-.23,2.31-.71c.56-.47.84-1.08.84-1.84,0-.62-.19-1.13-.57-1.53-.38-.4-.85-.71-1.42-.94-.57-.23-1.36-.49-2.36-.77-1.36-.4-2.46-.79-3.31-1.18-.85-.39-1.58-.98-2.19-1.77-.61-.79-.92-1.84-.92-3.17,0-1.24.31-2.32.93-3.24.62-.92,1.49-1.62,2.61-2.12s2.4-.74,3.84-.74c2.16,0,3.91.53,5.26,1.58s2.1,2.52,2.24,4.4h-4.62c-.04-.72-.35-1.32-.92-1.79s-1.33-.71-2.27-.71c-.82,0-1.48.21-1.96.63-.49.42-.73,1.03-.73,1.83,0,.56.18,1.03.55,1.39.37.37.83.67,1.38.9.55.23,1.32.5,2.33.79,1.36.4,2.47.8,3.33,1.2.86.4,1.6,1,2.22,1.8s.93,1.85.93,3.15c0,1.12-.29,2.16-.87,3.12s-1.43,1.73-2.55,2.3c-1.12.57-2.45.85-3.99.85-1.46,0-2.77-.25-3.94-.75Z"/>
      <path class="cls-1" d="M154.95,20.07c-1.64-.92-2.94-2.19-3.9-3.83-.96-1.63-1.44-3.47-1.44-5.54s.48-3.87,1.44-5.5c.96-1.63,2.26-2.9,3.9-3.83,1.64-.92,3.44-1.38,5.4-1.38s3.78.46,5.42,1.38c1.63.92,2.92,2.2,3.87,3.83.95,1.63,1.42,3.46,1.42,5.5s-.48,3.91-1.42,5.54c-.95,1.63-2.25,2.91-3.89,3.83-1.64.92-3.44,1.38-5.4,1.38s-3.76-.46-5.4-1.38ZM163.68,16.85c.96-.57,1.71-1.38,2.25-2.45.54-1.06.81-2.29.81-3.69s-.27-2.62-.81-3.67-1.29-1.85-2.25-2.42c-.96-.56-2.07-.84-3.33-.84s-2.38.28-3.35.84c-.97.56-1.72,1.37-2.26,2.42s-.81,2.28-.81,3.67.27,2.63.81,3.69c.54,1.06,1.29,1.88,2.26,2.45.97.57,2.08.85,3.35.85s2.37-.29,3.33-.85Z"/>
      <path class="cls-1" d="M188.07,17.25h-8.34l-1.38,3.99h-4.41L181.47.27h4.89l7.53,20.97h-4.44l-1.38-3.99ZM186.93,13.89l-3.03-8.76-3.03,8.76h6.06Z"/>
      <path class="cls-1" d="M208.41,21.24l-4.62-8.16h-1.98v8.16h-4.2V.3h7.86c1.62,0,3,.29,4.14.86,1.14.57,2,1.34,2.57,2.31.57.97.86,2.06.86,3.26,0,1.38-.4,2.62-1.2,3.73-.8,1.11-1.99,1.88-3.57,2.29l5.01,8.49h-4.86ZM201.81,9.93h3.51c1.14,0,1.99-.28,2.55-.83.56-.55.84-1.32.84-2.29s-.28-1.71-.84-2.24c-.56-.53-1.41-.79-2.55-.79h-3.51v6.15Z"/>
      <path class="cls-1" d="M231.84.3v3.39h-5.58v17.55h-4.2V3.69h-5.58V.3h15.36Z"/>
      <path class="cls-1" d="M251.58,10.26c.9,0,1.56-.23,2-.69.43-.46.65-1.07.65-1.83h.12c0,.46,0,.83-.01,1.11,0,.28-.01.51-.01.67s0,.32-.02.44-.01.26-.01.42,0,.29.01.39c0,.1.02.24.02.41s0,.39.01.64c0,.26.01.62.01,1.08h-.12c0-.72-.22-1.31-.65-1.77-.43-.46-1.09-.69-2-.69h-2.04v6.72c0,.72.06,1.31.2,1.77.13.46.36.82.69,1.07.33.25.77.42,1.31.51s1.22.13,2.04.13c.72,0,1.38-.06,2-.18.61-.12,1.15-.33,1.62-.63.47-.3.86-.71,1.18-1.21.32-.51.54-1.16.66-1.94h.15l-.24,4.08c-.88.02-1.65.04-2.31.04s-1.39.01-2.19.01c-1.7,0-3.07-.02-4.11-.07s-1.88-.08-2.52-.08c-.32,0-.59,0-.81.01-.22.01-.45.02-.69.03-.24,0-.53.02-.86.03s-.75.01-1.28.01v-.12c.28,0,.56-.02.84-.08.28-.05.52-.14.73-.29.21-.14.38-.33.51-.58.13-.25.2-.58.2-1V2.76c0-.42-.07-.75-.2-1s-.3-.45-.51-.58-.46-.24-.73-.29c-.28-.05-.56-.08-.84-.08v-.12c.52,0,.94,0,1.26.02.32,0,.59.02.82.03.23.01.45.02.66.03.21.01.48.01.79.01.68,0,1.5-.03,2.48-.09.97-.06,2.05-.09,3.25-.09.38,0,.74,0,1.06.02.33,0,.65.02.96.03.31.01.63.02.96.03.33.01.69.01,1.09.01l.18,3.78h-.12c-.16-1.2-.66-2.12-1.48-2.75-.83-.63-2-.95-3.5-.95-.18,0-.39,0-.63.02-.24,0-.48.03-.72.04-.24.02-.47.04-.69.08-.22.03-.4.05-.54.08-.22.04-.39.13-.51.28-.12.15-.18.43-.18.83v8.16h2.04Z"/>
      <path class="cls-1" d="M261.36,7.77c.4,0,.73,0,.99.02s.5.02.71.03c.21.01.41.02.6.03.19.01.42.01.71.01.26,0,.5,0,.71-.01.21,0,.43-.02.66-.03.23,0,.49-.02.78-.03s.65-.02,1.07-.02v.12c-.34,0-.66.04-.95.12s-.43.26-.43.54c0,.24.13.55.39.93l2.61,3.72,2.79-3.45c.36-.48.54-.85.54-1.11,0-.18-.06-.32-.17-.42-.11-.1-.25-.17-.41-.22s-.33-.08-.5-.09c-.17,0-.32-.01-.43-.01v-.12c.48,0,.83.01,1.05.03.22.02.5.03.84.03.2,0,.36,0,.5-.02.13,0,.26-.01.39-.01s.29,0,.48-.01c.19,0,.43-.02.73-.02v.12c-.6.04-1.06.16-1.38.36s-.68.56-1.08,1.08l-3.27,4.02,3.6,5.07c.44.6.89,1.12,1.37,1.56.47.44,1.05.66,1.75.66v.12c-.46,0-.84,0-1.14-.01-.3,0-.57-.02-.79-.03-.23,0-.45-.02-.65-.03-.2,0-.43-.01-.69-.01-.28,0-.53,0-.74.01-.21.01-.43.02-.66.03-.23,0-.5.02-.79.03s-.67.01-1.11.01v-.12c.14,0,.29,0,.45-.01s.31-.04.45-.08c.14-.04.26-.1.36-.18.1-.08.15-.2.15-.36,0-.12-.03-.23-.08-.34s-.13-.25-.25-.44l-2.85-4.14-3.15,3.84c-.12.16-.22.32-.31.48s-.14.31-.14.45c0,.18.06.32.17.42.11.1.24.18.39.23.15.05.3.08.46.1.16.02.3.03.42.03v.12c-.46,0-.82,0-1.08-.03-.26-.02-.56-.03-.9-.03-.2,0-.38,0-.53.01s-.31.01-.46.01-.33,0-.53.02-.42.01-.67.01v-.12c.62,0,1.12-.11,1.51-.33.39-.22.83-.63,1.31-1.23l3.42-4.14-3.66-5.16c-.4-.56-.77-1.01-1.11-1.36s-.82-.53-1.44-.53v-.12Z"/>
      <path class="cls-1" d="M282.72,19.86c.1.22.24.39.41.51.17.12.37.2.6.23s.47.04.74.04v.12c-.42,0-.76,0-1.04-.01-.27,0-.52-.02-.75-.03-.23,0-.45-.02-.66-.03-.21,0-.45-.01-.71-.01-.38,0-.68,0-.9.01-.22.01-.43.02-.62.03-.19,0-.4.02-.63.03-.23,0-.54.01-.92.01v-.12c.26,0,.5-.01.73-.04.23-.03.43-.1.6-.22s.3-.29.41-.51c.1-.22.15-.53.15-.93V3.06c0-.72-.17-1.18-.51-1.39-.34-.21-.8-.32-1.38-.32v-.12c.74-.08,1.46-.21,2.14-.39.69-.18,1.41-.4,2.15-.66v9.63c.5-.72,1.12-1.29,1.88-1.72s1.69-.65,2.83-.65c1.06,0,1.88.21,2.45.62.57.41.99.91,1.26,1.49.27.58.42,1.17.46,1.79s.06,1.1.06,1.48v6.12c0,.4.05.71.15.93.1.22.23.39.41.51.17.12.37.19.6.22.23.03.47.04.74.04v.12c-.42,0-.77,0-1.04-.01-.27,0-.52-.02-.74-.03s-.43-.02-.64-.03c-.21,0-.45-.01-.71-.01-.28,0-.52,0-.72.01-.2.01-.41.02-.63.03-.22,0-.46.02-.73.03-.27,0-.61.01-1,.01v-.12c.26,0,.5-.01.73-.04.23-.03.43-.1.6-.23.17-.12.3-.29.4-.51.1-.22.15-.53.15-.93v-6.89c0-.24-.01-.6-.04-1.07-.03-.47-.13-.95-.3-1.43-.17-.48-.44-.9-.79-1.25-.36-.35-.88-.53-1.56-.53-.52,0-1,.1-1.46.29-.45.19-.85.45-1.2.77-.35.32-.63.7-.83,1.13-.2.43-.3.9-.3,1.4v7.58c0,.4.05.71.15.93Z"/>
      <path class="cls-1" d="M297.87,10.29c0-.38-.05-.69-.15-.92-.1-.23-.24-.41-.41-.53s-.37-.2-.6-.22c-.23-.03-.48-.04-.74-.04v-.12c.74-.08,1.46-.21,2.16-.38s1.42-.39,2.16-.67v11.52c0,.4.05.71.15.93.1.22.23.39.4.51s.37.19.6.22c.23.03.47.04.73.04v.12c-.42,0-.76,0-1.03-.01-.27,0-.51-.02-.72-.03s-.42-.02-.63-.03c-.21,0-.45-.01-.71-.01-.28,0-.52,0-.73.01-.21.01-.43.02-.65.03s-.46.02-.74.03c-.27,0-.6.01-1,.01v-.12c.26,0,.5-.01.74-.04.23-.03.43-.1.6-.22s.3-.29.41-.51c.1-.22.15-.53.15-.93v-8.64ZM298.68,1.32c.46,0,.84.16,1.16.47s.46.69.46,1.15-.16.82-.46,1.12-.7.46-1.16.46-.82-.15-1.12-.46c-.31-.31-.46-.68-.46-1.12s.15-.84.46-1.15c.31-.31.68-.47,1.12-.47Z"/>
      <path class="cls-1" d="M306.21,3.09c0-.38-.05-.68-.15-.92-.1-.23-.24-.41-.42-.53s-.39-.19-.63-.22-.51-.04-.81-.04v-.12c.74-.06,1.49-.18,2.25-.36.76-.18,1.49-.41,2.19-.69v8.85c.38-.4.87-.75,1.47-1.06.6-.31,1.38-.47,2.34-.47s1.83.17,2.6.5c.77.33,1.42.79,1.96,1.37s.96,1.27,1.25,2.07c.29.8.43,1.66.43,2.58s-.13,1.87-.41,2.73c-.27.86-.67,1.62-1.21,2.27-.54.65-1.22,1.17-2.04,1.54-.82.38-1.78.57-2.88.57-.92,0-1.71-.18-2.37-.54-.66-.36-1.25-.83-1.77-1.41l-1.65,1.74h-.15V3.09ZM315.93,14.31c0-.77-.08-1.54-.22-2.33-.15-.79-.39-1.5-.72-2.13s-.75-1.15-1.25-1.54c-.5-.39-1.1-.59-1.8-.59-.58,0-1.08.1-1.5.29-.42.19-.76.42-1.04.7-.27.27-.46.58-.58.91-.12.33-.18.63-.18.89v6.81c0,.75.1,1.36.3,1.83.2.47.46.85.77,1.12.31.27.65.46,1.02.56s.74.15,1.09.15c.8,0,1.46-.21,2-.64s.96-.96,1.28-1.62c.32-.66.54-1.37.66-2.15.12-.78.18-1.53.18-2.25Z"/>
      <path class="cls-1" d="M323.58,10.29c0-.38-.05-.69-.15-.92-.1-.23-.24-.41-.41-.53s-.37-.2-.6-.22c-.23-.03-.47-.04-.73-.04v-.12c.74-.08,1.46-.21,2.16-.38.7-.17,1.42-.39,2.16-.67v11.52c0,.4.05.71.15.93.1.22.24.39.41.51s.37.19.6.22.47.04.74.04v.12c-.42,0-.76,0-1.04-.01-.27,0-.51-.02-.72-.03s-.42-.02-.63-.03c-.21,0-.45-.01-.71-.01-.28,0-.53,0-.74.01-.21.01-.42.02-.64.03-.22,0-.47.02-.74.03-.27,0-.61.01-1,.01v-.12c.26,0,.5-.01.73-.04.23-.03.43-.1.6-.22s.3-.29.41-.51c.1-.22.15-.53.15-.93v-8.64ZM324.39,1.32c.46,0,.84.16,1.15.47.31.31.47.69.47,1.15s-.16.82-.47,1.12c-.31.31-.69.46-1.15.46s-.82-.15-1.12-.46c-.31-.31-.47-.68-.47-1.12s.16-.84.47-1.15c.31-.31.68-.47,1.12-.47Z"/>
      <path class="cls-1" d="M335.85,21.12c-.7,0-1.28-.1-1.73-.3s-.81-.48-1.06-.83c-.26-.35-.44-.76-.54-1.22-.1-.46-.15-.95-.15-1.47v-9.11h-1.71v-.1c.42-.14.83-.34,1.25-.61.41-.27.79-.57,1.14-.9s.67-.69.95-1.09c.28-.4.51-.81.69-1.23h.12v3.75h3.12v.18h-3.12v8.38c0,.46,0,.93.03,1.42.02.48.09.92.22,1.33s.33.73.58.98.63.38,1.11.38c.52,0,.96-.13,1.3-.38.35-.26.63-.56.86-.91l.12.09c-.32.48-.74.88-1.26,1.18-.52.31-1.16.47-1.92.47Z"/>
      <path class="cls-1" d="M343.17,10.29c0-.38-.05-.69-.15-.92-.1-.23-.24-.41-.41-.53s-.37-.2-.6-.22c-.23-.03-.48-.04-.74-.04v-.12c.74-.08,1.46-.21,2.16-.38s1.42-.39,2.16-.67v11.52c0,.4.05.71.15.93.1.22.23.39.4.51s.37.19.6.22c.23.03.47.04.73.04v.12c-.42,0-.76,0-1.03-.01-.27,0-.51-.02-.72-.03s-.42-.02-.63-.03c-.21,0-.45-.01-.71-.01-.28,0-.52,0-.73.01-.21.01-.43.02-.65.03s-.46.02-.74.03c-.27,0-.6.01-1,.01v-.12c.26,0,.5-.01.74-.04.23-.03.43-.1.6-.22s.3-.29.41-.51c.1-.22.15-.53.15-.93v-8.64ZM343.98,1.32c.46,0,.84.16,1.16.47s.46.69.46,1.15-.16.82-.46,1.12-.7.46-1.16.46-.82-.15-1.12-.46c-.31-.31-.46-.68-.46-1.12s.15-.84.46-1.15c.31-.31.68-.47,1.12-.47Z"/>
      <path class="cls-1" d="M364.14,14.25c0,1-.17,1.92-.51,2.76s-.81,1.57-1.41,2.17c-.6.61-1.32,1.09-2.16,1.44-.84.35-1.75.52-2.73.52s-1.92-.17-2.76-.52c-.84-.35-1.57-.83-2.19-1.44-.62-.61-1.11-1.33-1.46-2.17s-.52-1.75-.52-2.73c0-1.04.17-1.98.52-2.82s.83-1.56,1.46-2.16,1.35-1.06,2.21-1.38c.85-.32,1.76-.48,2.75-.48s1.83.16,2.66.48c.83.32,1.55.78,2.16,1.38s1.1,1.32,1.46,2.16c.36.84.54,1.77.54,2.79ZM357.33,7.62c-.72,0-1.34.19-1.86.57s-.95.88-1.29,1.49-.59,1.33-.76,2.14c-.17.81-.25,1.63-.25,2.46s.08,1.66.24,2.46c.16.81.41,1.52.76,2.15.35.63.78,1.13,1.3,1.51s1.14.57,1.86.57,1.34-.19,1.86-.58c.52-.39.94-.9,1.26-1.52.32-.63.55-1.34.71-2.15.15-.81.22-1.63.22-2.46s-.08-1.65-.24-2.45c-.16-.8-.4-1.5-.73-2.12s-.75-1.12-1.26-1.49c-.51-.38-1.11-.57-1.81-.57Z"/>
      <path class="cls-1" d="M368.94,9.34c-.1-.23-.24-.41-.41-.53-.17-.12-.37-.19-.6-.22-.23-.03-.48-.04-.74-.04v-.12c.7-.1,1.34-.24,1.92-.42s1.19-.41,1.83-.69c.1.5.18,1.02.25,1.55.07.53.12.96.14,1.3.46-.84,1.11-1.5,1.95-2,.84-.49,1.76-.74,2.76-.74s1.84.18,2.42.54c.57.36.99.8,1.26,1.32.27.52.43,1.07.48,1.63.05.57.08,1.08.08,1.52v6.48c0,.4.05.71.15.93.1.22.23.39.41.51.17.12.37.19.6.22.23.03.47.04.74.04v.12c-.42,0-.77,0-1.04-.01-.27,0-.51-.02-.72-.03-.21,0-.42-.02-.61-.03-.2,0-.43-.01-.69-.01-.28,0-.52,0-.74.01-.21.01-.42.02-.64.03-.22,0-.47.02-.75.03s-.62.01-1.02.01v-.12c.26,0,.5-.01.73-.04.23-.03.43-.1.6-.22.17-.12.3-.29.4-.51.1-.22.15-.53.15-.93v-7c0-.24-.01-.58-.04-1.03s-.13-.9-.3-1.35c-.17-.45-.45-.84-.83-1.17s-.92-.49-1.62-.49c-.42,0-.84.09-1.26.27s-.8.43-1.14.76-.61.72-.82,1.18c-.21.46-.32.96-.32,1.5v7.33c0,.4.05.71.15.93.1.22.23.39.4.51.17.12.37.19.6.22.23.03.47.04.73.04v.12c-.42,0-.76,0-1.04-.01-.27,0-.52-.02-.75-.03-.23,0-.45-.02-.66-.03-.21,0-.45-.01-.71-.01-.28,0-.52,0-.72.01-.2.01-.4.02-.61.03s-.45.02-.72.03c-.27,0-.6.01-1,.01v-.12c.26,0,.5-.01.74-.04.23-.03.43-.1.6-.22.17-.12.3-.29.41-.51.1-.22.15-.53.15-.93v-8.67c0-.38-.05-.68-.15-.92Z"/>
    </g>
  </g>
</svg>